<?xml version="1.0" encoding="utf-8"?>
<!-- Generator: Adobe Illustrator 21.0.0, SVG Export Plug-In . SVG Version: 6.00 Build 0)  -->
<svg version="1.1" id="Capa_1" xmlns="http://www.w3.org/2000/svg" xmlns:xlink="http://www.w3.org/1999/xlink" x="0px" y="0px"
	 viewBox="0 0 708.7 566.9" style="enable-background:new 0 0 708.7 566.9;" xml:space="preserve">
<style type="text/css">
	.st0{fill:#FFFFFF;}
	.st1{opacity:0.35;}
	.st2{clip-path:url(#SVGID_2_);}
	.st3{fill:#FF5A5A;}
	.st4{opacity:0.3;}
	.st5{clip-path:url(#SVGID_4_);}
	.st6{clip-path:url(#SVGID_6_);}
	.st7{clip-path:url(#SVGID_8_);}
	.st8{clip-path:url(#SVGID_10_);}
	.st9{fill:none;stroke:#01D990;stroke-width:8;stroke-linecap:round;stroke-linejoin:round;stroke-miterlimit:10;}
	.st10{fill:#01D990;}
	.st11{fill:#FFFFFF;}
	.st12{fill:url(#SVGID_11_);}
	.st13{fill:url(#SVGID_12_);}
	.st14{fill:url(#SVGID_13_);}
	.st15{fill:url(#SVGID_14_);}
	.st16{fill:url(#SVGID_15_);}
	.st17{fill:url(#SVGID_16_);}
	.st18{fill:url(#SVGID_17_);}
	.st19{fill:url(#SVGID_18_);}
	.st20{fill:url(#SVGID_19_);}
	.st21{fill:url(#SVGID_20_);}
	.st22{fill:url(#SVGID_21_);}
	.st23{fill:url(#SVGID_22_);}
	.st24{fill:url(#SVGID_23_);}
	.st25{fill:url(#SVGID_24_);}
	.st26{fill:url(#SVGID_25_);}
	.st27{fill:url(#SVGID_26_);}
	.st28{fill:url(#SVGID_27_);}
	.st29{fill:url(#SVGID_28_);}
	.st30{fill:url(#SVGID_29_);}
	.st31{fill:url(#SVGID_30_);}
	.st32{fill:url(#SVGID_31_);}
	.st33{fill:url(#SVGID_32_);}
	.st34{fill:url(#SVGID_33_);}
	.st35{fill:url(#SVGID_34_);}
	.st36{fill:url(#SVGID_35_);}
	.st37{fill:url(#SVGID_36_);}
	.st38{fill:url(#SVGID_37_);}
	.st39{fill:url(#SVGID_38_);}
	.st40{fill:url(#SVGID_39_);}
	.st41{fill:url(#SVGID_40_);}
	.st42{fill:url(#SVGID_41_);}
	.st43{fill:url(#SVGID_42_);}
	.st44{fill:url(#SVGID_43_);}
	.st45{fill:url(#SVGID_44_);}
	.st46{fill:url(#SVGID_45_);}
	.st47{fill:url(#SVGID_46_);}
	.st48{fill:url(#SVGID_47_);}
	.st49{fill:url(#SVGID_48_);}
	.st50{fill:url(#SVGID_49_);}
</style>
<g>
	<circle class="st0" cx="354.3" cy="283.5" r="237.3"/>
	<g>
		<g>
			<path class="st11" d="M302,343.1c-4.3,0-8.4-1.5-11.8-4.4c-5.1-4.4-7.4-10.9-6.1-17.5l23.7-143.2c0-0.1,0-0.1,0-0.2
				c1.3-6.3,5.6-11.4,11.6-13.6c6-2.2,12.6-1.2,17.7,2.7c0,0,0.1,0.1,0.1,0.1L449,259.6c5.3,4.1,7.9,10.6,6.8,17.2
				c-1,6.7-5.4,12.1-11.8,14.5l-27.7,10.3c-2.3,0.9-4.9-0.1-6.1-2.2c-9.3-16.5-28.9-23.7-46.7-17.1c-17.8,6.6-27.9,24.9-24.2,43.5
				c0.5,2.4-0.8,4.8-3.2,5.7l-27.7,10.3C306.4,342.7,304.2,343.1,302,343.1z M317.7,179.6l-23.7,143.2c0,0.1,0,0.1,0,0.2
				c-0.6,3,0.4,6,2.8,8c2.3,2,5.5,2.6,8.4,1.5l23.9-8.9c-2.5-21.9,10.1-42.7,31.1-50.6c21.1-7.9,44.2-0.3,56.7,17.9l23.9-8.9
				c2.9-1.1,4.9-3.5,5.4-6.6c0.5-3.1-0.7-6-3.2-7.9c0,0-0.1-0.1-0.1-0.1L331,174.7c-2.3-1.8-5.2-2.2-8-1.2
				C320.2,174.5,318.3,176.7,317.7,179.6z"/>
			<path class="st11" d="M377,346.2c-11.3,0-22-7-26.2-18.2c-5.4-14.4,2-30.6,16.4-36c14.4-5.4,30.6,2,36,16.4c0,0,0,0,0,0
				c5.4,14.4-2,30.6-16.4,36C383.5,345.7,380.2,346.2,377,346.2z M376.9,300.3c-2.1,0-4.2,0.4-6.3,1.1c-9.3,3.5-14,13.8-10.6,23.1
				c3.5,9.3,13.8,14,23.1,10.6c9.3-3.5,14-13.8,10.6-23.1v0C391.1,304.8,384.2,300.3,376.9,300.3z"/>
			<path class="st11" d="M348.1,264.2c-3.3,0-6.5-0.7-9.6-2.1c-5.6-2.6-9.9-7.1-12-12.9c-2.2-5.8-1.9-12,0.6-17.6
				c2.6-5.6,7.1-9.9,12.9-12c5.8-2.2,12-1.9,17.6,0.6c5.6,2.6,9.9,7.1,12,12.9c2.2,5.8,1.9,12-0.6,17.6s-7.1,9.9-12.9,12
				C353.6,263.7,350.9,264.2,348.1,264.2z M348.2,228c-1.5,0-3.1,0.3-4.6,0.8c-3.3,1.2-5.9,3.6-7.3,6.8c-1.4,3.2-1.6,6.7-0.4,10
				c1.2,3.3,3.6,5.9,6.8,7.3c3.2,1.5,6.7,1.6,10,0.4c3.3-1.2,5.9-3.6,7.3-6.8c1.4-3.2,1.6-6.7,0.4-10c-1.2-3.3-3.6-5.9-6.8-7.3
				C351.9,228.4,350,228,348.2,228z"/>
		</g>
		<g>
			<g>
				<path class="st11" d="M291,396.1v3.2c0,1-0.3,2.1-0.8,3.3c-0.5,1.3-1.4,2.4-2.5,3.5c-1.1,1.1-2.6,2-4.3,2.8
					c-1.8,0.7-3.9,1.1-6.4,1.1c-2.9,0-5.3-0.5-7.2-1.5c-1.9-1-3.3-2.3-4.4-3.8c-1.1-1.5-1.8-3.2-2.2-5c-0.4-1.8-0.6-3.5-0.6-5.2
					c0-2.5,0.3-4.8,0.9-6.9c0.6-2.1,1.5-4,2.7-5.5c1.2-1.5,2.8-2.7,4.6-3.6c1.9-0.9,4.1-1.3,6.8-1.3c1.2,0,2.5,0.1,4.1,0.4
					c1.6,0.3,3,0.8,4.5,1.6c1.4,0.8,2.6,1.8,3.6,3.2c1,1.4,1.5,3.1,1.5,5.3v3h-8.5v-2.9c0-0.9-0.4-1.8-1.3-2.5
					c-0.9-0.8-2-1.1-3.4-1.1h-0.4c-1.3,0-2.4,0.3-3.2,0.9c-0.8,0.6-1.5,1.3-2,2.2c-0.5,0.9-0.8,1.8-1,2.9c-0.2,1.1-0.3,2.1-0.3,3
					c0,0.9,0,1.9,0.1,3c0.1,1.2,0.3,2.3,0.7,3.3c0.4,1.1,1,2,1.9,2.7c0.8,0.7,2,1.1,3.6,1.1c0.8,0,1.6-0.1,2.2-0.4
					c0.7-0.3,1.2-0.6,1.7-1c0.5-0.4,0.8-0.9,1.1-1.3c0.3-0.5,0.4-1,0.4-1.4v-2.9H291z"/>
				<path class="st11" d="M325.3,393.6c0,2.8-0.4,5.3-1.3,7.3c-0.9,2.1-2,3.8-3.5,5.1c-1.5,1.3-3.2,2.3-5.1,3c-1.9,0.6-3.9,1-6,1
					c-2.1,0-4.1-0.3-6-1c-1.9-0.6-3.6-1.6-5.1-3c-1.5-1.3-2.6-3.1-3.5-5.1c-0.9-2.1-1.3-4.5-1.3-7.3s0.4-5.2,1.3-7.3
					c0.9-2.1,2.1-3.7,3.5-5.1c1.5-1.3,3.2-2.4,5.1-3c1.9-0.7,3.9-1,6-1c2.1,0,4.1,0.3,6,1c1.9,0.7,3.6,1.7,5.1,3
					c1.5,1.3,2.6,3,3.5,5.1C324.9,388.3,325.3,390.7,325.3,393.6z M316.9,393.6c0-1-0.1-2-0.3-3.1c-0.2-1.1-0.6-2.1-1.1-3.1
					c-0.5-0.9-1.3-1.7-2.3-2.3c-1-0.6-2.3-0.9-3.8-0.9c-1.6,0-2.9,0.3-3.9,0.9c-1,0.6-1.7,1.4-2.3,2.3c-0.5,0.9-0.9,2-1.1,3.1
					c-0.2,1.1-0.3,2.2-0.3,3.1c0,1,0.1,2.1,0.3,3.2c0.2,1.1,0.6,2.1,1.1,3.1c0.5,0.9,1.3,1.7,2.3,2.3c1,0.6,2.3,0.9,3.9,0.9
					c1.6,0,2.8-0.3,3.8-0.9c1-0.6,1.8-1.4,2.3-2.3c0.5-0.9,0.9-2,1.1-3.1C316.8,395.6,316.9,394.6,316.9,393.6z"/>
				<path class="st11" d="M331.6,386.7c0-0.4-0.2-0.8-0.5-1.1c-0.4-0.4-0.7-0.6-1.1-0.6h-1.9v-7h7.1c0.5,0,0.9,0.1,1.4,0.4
					c0.5,0.2,0.9,0.5,1.3,0.9c0.4,0.4,0.7,0.8,1,1.3c0.3,0.5,0.4,0.9,0.4,1.4v1.3c0.3-0.5,0.6-1.1,1.1-1.8c0.4-0.7,1-1.4,1.8-2
					c0.7-0.6,1.6-1.2,2.6-1.6c1-0.4,2.2-0.7,3.6-0.7c1.1,0,2.1,0.1,3,0.3c0.8,0.2,1.6,0.5,2.3,0.9c0.7,0.4,1.3,0.9,1.8,1.6
					c0.5,0.6,1.1,1.3,1.6,2.2c0.3-0.4,0.6-0.9,1.1-1.4c0.4-0.6,1-1.1,1.6-1.6c0.7-0.5,1.5-1,2.4-1.3c0.9-0.4,2-0.6,3.3-0.6
					c1.5,0,2.9,0.2,4.3,0.7c1.3,0.4,2.5,1.1,3.4,2s1.7,2,2.3,3.3c0.6,1.3,0.8,2.8,0.8,4.5v13c0,0.4,0.1,0.7,0.4,1
					c0.3,0.3,0.6,0.5,1,0.5h2.1v7h-6.3c-0.7,0-1.3-0.2-2-0.6c-0.7-0.4-1.2-0.8-1.8-1.4c-0.5-0.6-0.9-1.2-1.2-1.9
					c-0.3-0.7-0.5-1.4-0.5-2v-12.9c0-2.3-0.4-3.9-1.3-4.8c-0.9-0.9-1.9-1.3-3.1-1.3c-2.1,0-3.5,0.6-4.3,1.8
					c-0.8,1.2-1.2,2.7-1.2,4.6v18.7h-8.2v-18.7c0-0.7,0-1.4-0.1-2.1c-0.1-0.7-0.2-1.4-0.5-2.1c-0.3-0.6-0.8-1.1-1.5-1.6
					c-0.7-0.4-1.6-0.6-2.8-0.6c-1,0-1.8,0.2-2.4,0.5c-0.6,0.3-1.2,0.7-1.6,1.3c-0.4,0.5-0.7,1.2-0.9,1.9c-0.2,0.7-0.3,1.5-0.3,2.4
					v13.5c0,0.7-0.2,1.3-0.6,2c-0.4,0.7-0.9,1.3-1.4,1.8c-0.6,0.5-1.2,0.9-2,1.3c-0.7,0.3-1.4,0.5-2.1,0.5h-5.7v-7h1.9
					c0.4,0,0.7-0.2,1.1-0.5c0.4-0.3,0.5-0.6,0.5-1V386.7z"/>
			</g>
			<g>
				<path class="st11" d="M451.8,396.1v3.2c0,1-0.3,2.1-0.8,3.3c-0.5,1.3-1.4,2.4-2.5,3.5c-1.1,1.1-2.6,2-4.3,2.8
					c-1.8,0.7-3.9,1.1-6.4,1.1c-2.9,0-5.3-0.5-7.2-1.5c-1.9-1-3.3-2.3-4.4-3.8c-1.1-1.5-1.8-3.2-2.2-5c-0.4-1.8-0.6-3.5-0.6-5.2
					c0-2.5,0.3-4.8,0.9-6.9c0.6-2.1,1.5-4,2.7-5.5c1.2-1.5,2.8-2.7,4.6-3.6c1.9-0.9,4.1-1.3,6.8-1.3c1.2,0,2.5,0.1,4.1,0.4
					c1.6,0.3,3,0.8,4.5,1.6c1.4,0.8,2.6,1.8,3.6,3.2c1,1.4,1.5,3.1,1.5,5.3v3h-8.5v-2.9c0-0.9-0.4-1.8-1.3-2.5
					c-0.9-0.8-2-1.1-3.4-1.1h-0.4c-1.3,0-2.4,0.3-3.2,0.9c-0.8,0.6-1.5,1.3-2,2.2c-0.5,0.9-0.8,1.8-1,2.9c-0.2,1.1-0.3,2.1-0.3,3
					c0,0.9,0,1.9,0.1,3c0.1,1.2,0.3,2.3,0.7,3.3c0.4,1.1,1,2,1.9,2.7c0.8,0.7,2,1.1,3.6,1.1c0.8,0,1.6-0.1,2.2-0.4
					c0.7-0.3,1.2-0.6,1.7-1c0.5-0.4,0.8-0.9,1.1-1.3c0.3-0.5,0.4-1,0.4-1.4v-2.9H451.8z"/>
				<path class="st11" d="M486.1,393.6c0,2.8-0.4,5.3-1.3,7.3c-0.9,2.1-2,3.8-3.5,5.1c-1.5,1.3-3.2,2.3-5.1,3c-1.9,0.6-3.9,1-6,1
					c-2.1,0-4.1-0.3-6-1c-1.9-0.6-3.6-1.6-5.1-3c-1.5-1.3-2.6-3.1-3.5-5.1c-0.9-2.1-1.3-4.5-1.3-7.3s0.4-5.2,1.3-7.3
					c0.9-2.1,2.1-3.7,3.5-5.1c1.5-1.3,3.2-2.4,5.1-3c1.9-0.7,3.9-1,6-1c2.1,0,4.1,0.3,6,1c1.9,0.7,3.6,1.7,5.1,3
					c1.5,1.3,2.6,3,3.5,5.1C485.7,388.3,486.1,390.7,486.1,393.6z M477.7,393.6c0-1-0.1-2-0.3-3.1c-0.2-1.1-0.6-2.1-1.1-3.1
					c-0.5-0.9-1.3-1.7-2.3-2.3c-1-0.6-2.3-0.9-3.8-0.9c-1.6,0-2.9,0.3-3.9,0.9c-1,0.6-1.7,1.4-2.3,2.3c-0.5,0.9-0.9,2-1.1,3.1
					c-0.2,1.1-0.3,2.2-0.3,3.1c0,1,0.1,2.1,0.3,3.2c0.2,1.1,0.6,2.1,1.1,3.1c0.5,0.9,1.3,1.7,2.3,2.3c1,0.6,2.3,0.9,3.9,0.9
					c1.6,0,2.8-0.3,3.8-0.9c1-0.6,1.8-1.4,2.3-2.3c0.5-0.9,0.9-2,1.1-3.1C477.6,395.6,477.7,394.6,477.7,393.6z"/>
			</g>
			<path class="st11" d="M401,377c4.7,0.2,8.8,2,11.7,5.5c3.2,3.2,4.7,7.4,4.5,12.1c-0.2,4.7-2,8.5-5.5,11.4
				c-3.5,3.2-7.4,4.7-12.1,4.5c-4.7-0.2-8.5-2-11.4-5.5c-3.2-3.2-4.7-7.1-4.5-11.8c0.2-4.7,2-8.5,5.5-11.7
				C392.3,378.4,396.3,376.9,401,377z"/>
			<path class="st11" d="M239.2,377c4.7,0,8.9,1.7,11.9,5c3.3,3.1,5,7.2,5,11.9c0,4.7-1.7,8.6-5,11.6c-3.3,3.3-7.2,5-11.9,5
				s-8.6-1.7-11.6-5c-3.3-3.1-5-6.9-5-11.6c0-4.7,1.7-8.6,5-11.9C230.6,378.7,234.5,377,239.2,377z"/>
		</g>
		<g>
			<path class="st11" d="M275.3,366.8c-14.4,0-36.6,2.2-36.6-22.3v-50.8c0-3.9-0.9-7.1-2.8-9.6c-1.9-2.5-4.1-4.5-6.6-6
				c-2.5-1.4-5.2-2.4-7.9-2.9c-2.7-0.5-4.9-0.8-6.6-0.8V251c1.7,0,3.9-0.3,6.6-0.8c2.7-0.5,5.3-1.5,7.9-2.9c2.5-1.4,4.7-3.4,6.6-6
				c1.9-2.5,2.8-5.7,2.8-9.6V181c-0.1-25.3,22.5-25.2,35.5-24.4h1v12h-11.4c-3.2,0-5.8,0.5-7.6,1.5c-1.9,1-3.3,2.3-4.3,3.9
				c-1,1.6-1.7,3.4-1.9,5.5c-0.3,2-0.4,4-0.4,5.8V235c-0.7,5.4-2.2,9.9-4.4,13.3c-2.3,3.5-4.9,6.2-7.9,8.2c-3,2-6,3.5-9,4.3
				c-3,0.8-5.6,1.4-7.6,1.5v0.5c2,0.2,4.6,0.7,7.6,1.5c3,0.8,6,2.3,9,4.3c3,2,5.6,4.8,7.9,8.3c2.3,3.5,3.8,7.9,4.4,13.3v49.8
				c0,1.9,0.1,3.8,0.4,5.8c0.3,2,0.9,3.9,1.9,5.5c1,1.6,2.4,2.9,4.3,3.9c1.9,1,4.4,1.5,7.6,1.5h11.4
				C275.3,356.9,275.3,363.2,275.3,366.8z"/>
			<path class="st11" d="M433.4,356.9h11.4c3.2,0,5.8-0.5,7.6-1.5c1.9-1,3.3-2.3,4.3-3.9c1-1.6,1.7-3.4,1.9-5.5c0.3-2,0.4-4,0.4-5.8
				v-49.8c0.7-5.4,2.2-9.9,4.4-13.3c2.3-3.5,4.9-6.2,7.9-8.3c3-2,6-3.5,9-4.3c3-0.8,5.6-1.4,7.6-1.5v-0.5c-2-0.2-4.6-0.7-7.6-1.5
				c-3-0.8-6-2.3-9-4.3c-3-2-5.6-4.8-7.9-8.2c-2.3-3.5-3.8-7.9-4.4-13.3v-49.8c0-1.9-0.1-3.8-0.4-5.8c-0.3-2-0.9-3.9-1.9-5.5
				c-1-1.6-2.4-2.9-4.3-3.9c-1.9-1-4.4-1.5-7.6-1.5h-11.4v-12h1c13.1-0.8,35.6-0.9,35.5,24.4v50.8c0,3.9,0.9,7.1,2.8,9.6
				c1.9,2.5,4.1,4.5,6.6,6c2.5,1.4,5.2,2.4,7.9,2.9c2.7,0.5,4.9,0.8,6.6,0.8v23.4c-1.7,0-3.9,0.3-6.6,0.8c-2.7,0.5-5.3,1.5-7.9,2.9
				c-2.5,1.4-4.7,3.4-6.6,6c-1.9,2.5-2.8,5.8-2.8,9.6v50.8c0,24.5-22.2,22.4-36.6,22.3C433.4,363.2,433.4,356.9,433.4,356.9z"/>
		</g>
	</g>
</g>
</svg>
