<?xml version="1.0" encoding="UTF-8"?>
<!DOCTYPE svg PUBLIC "-//W3C//DTD SVG 1.1//EN" "http://www.w3.org/Graphics/SVG/1.1/DTD/svg11.dtd">
<!-- Creator: CorelDRAW 2017 -->
<svg xmlns="http://www.w3.org/2000/svg" xml:space="preserve" width="211.667mm" height="211.667mm" version="1.1" style="shape-rendering:geometricPrecision; text-rendering:geometricPrecision; image-rendering:optimizeQuality; fill-rule:evenodd; clip-rule:evenodd"
viewBox="0 0 21166.66 21166.66"
 xmlns:xlink="http://www.w3.org/1999/xlink">
 <defs>
  <style type="text/css">
   <![CDATA[
    .fil0 {fill:none}
    .fil15 {fill:aqua}
    .fil13 {fill:#1A479D}
    .fil14 {fill:#31D6FF}
    .fil17 {fill:#3D00C4}
    .fil3 {fill:#5000CA}
    .fil12 {fill:#5165D0}
    .fil11 {fill:#8698DE}
    .fil5 {fill:#99FFFF}
    .fil10 {fill:#BFC8ED}
    .fil1 {fill:#DDE9FA}
    .fil7 {fill:fuchsia}
    .fil2 {fill:white}
    .fil16 {fill:white;fill-rule:nonzero}
    .fil6 {fill:url(#id16)}
    .fil18 {fill:url(#id17)}
    .fil4 {fill:url(#id18)}
    .fil9 {fill:url(#id19)}
    .fil8 {fill:url(#id20)}
   ]]>
  </style>
   <mask id="id0">
  <linearGradient id="id1" gradientUnits="userSpaceOnUse" x1="6052.44" y1="10551.91" x2="9363.71" y2="10352.11">
   <stop offset="0" style="stop-opacity:1; stop-color:white"/>
   <stop offset="1" style="stop-opacity:0; stop-color:white"/>
  </linearGradient>
    <rect style="fill:url(#id1)" x="6974.55" y="7223.81" width="6772.42" height="5033.61"/>
   </mask>
   <mask id="id2">
  <linearGradient id="id3" gradientUnits="userSpaceOnUse" x1="13852.91" y1="9500.56" x2="12202.01" y2="9688.97">
   <stop offset="0" style="stop-opacity:1; stop-color:white"/>
   <stop offset="1" style="stop-opacity:0; stop-color:white"/>
  </linearGradient>
    <rect style="fill:url(#id3)" x="6974.55" y="7223.81" width="6772.42" height="5033.61"/>
   </mask>
   <mask id="id4">
  <linearGradient id="id5" gradientUnits="userSpaceOnUse" x1="7063.9" y1="13494.64" x2="10033.31" y2="12982.56">
   <stop offset="0" style="stop-opacity:1; stop-color:white"/>
   <stop offset="1" style="stop-opacity:0; stop-color:white"/>
  </linearGradient>
    <rect style="fill:url(#id5)" x="7444.53" y="11627.52" width="5971.8" height="4327.09"/>
   </mask>
   <mask id="id6">
  <linearGradient id="id7" gradientUnits="userSpaceOnUse" x1="13695.08" y1="13289.69" x2="12146.96" y2="13165.01">
   <stop offset="0" style="stop-opacity:1; stop-color:white"/>
   <stop offset="1" style="stop-opacity:0; stop-color:white"/>
  </linearGradient>
    <rect style="fill:url(#id7)" x="7444.53" y="11627.52" width="5971.8" height="4327.09"/>
   </mask>
    <mask id="id8">
  <linearGradient id="id9" gradientUnits="userSpaceOnUse" x1="11363.49" y1="9852.26" x2="11361.38" y2="12361.91">
   <stop offset="0" style="stop-opacity:1; stop-color:white"/>
   <stop offset="1" style="stop-opacity:0; stop-color:white"/>
  </linearGradient>
     <rect style="fill:url(#id9)" x="9596.04" y="9895.77" width="2743.38" height="3322.59"/>
    </mask>
    <mask id="id10">
  <linearGradient id="id11" gradientUnits="userSpaceOnUse" x1="12312.47" y1="13396.46" x2="12310.59" y2="11709.54">
   <stop offset="0" style="stop-opacity:1; stop-color:white"/>
   <stop offset="1" style="stop-opacity:0; stop-color:white"/>
  </linearGradient>
     <rect style="fill:url(#id11)" x="9596.04" y="9895.77" width="2743.38" height="3322.59"/>
    </mask>
     <mask id="id12">
  <linearGradient id="id13" gradientUnits="userSpaceOnUse" x1="10971.42" y1="10031.1" x2="10845.07" y2="10982.09">
   <stop offset="0" style="stop-opacity:1; stop-color:white"/>
   <stop offset="1" style="stop-opacity:0; stop-color:white"/>
  </linearGradient>
      <rect style="fill:url(#id13)" x="9765.52" y="10035.65" width="2404.42" height="3042.83"/>
     </mask>
     <mask id="id14">
  <linearGradient id="id15" gradientUnits="userSpaceOnUse" x1="11458.06" y1="13191.21" x2="11507.6" y2="12344.77">
   <stop offset="0" style="stop-opacity:1; stop-color:white"/>
   <stop offset="1" style="stop-opacity:0; stop-color:white"/>
  </linearGradient>
      <rect style="fill:url(#id15)" x="9765.52" y="10035.65" width="2404.42" height="3042.83"/>
     </mask>
  <linearGradient id="id16" gradientUnits="userSpaceOnUse" x1="10488.36" y1="5894.57" x2="10572.72" y2="4075.35">
   <stop offset="0" style="stop-opacity:1; stop-color:#99FFFF"/>
   <stop offset="1" style="stop-opacity:1; stop-color:white"/>
  </linearGradient>
  <linearGradient id="id17" gradientUnits="userSpaceOnUse" x1="10361.8" y1="4800.94" x2="10424.99" y2="6517.78">
   <stop offset="0" style="stop-opacity:1; stop-color:#00CCFF"/>
   <stop offset="1" style="stop-opacity:1; stop-color:blue"/>
  </linearGradient>
  <linearGradient id="id18" gradientUnits="userSpaceOnUse" xlink:href="#id17" x1="10294.35" y1="6814.05" x2="10207.76" y2="12483.1">
  </linearGradient>
  <linearGradient id="id19" gradientUnits="userSpaceOnUse" x1="14130.44" y1="9221" x2="16136.51" y2="5487.56">
   <stop offset="0" style="stop-opacity:1; stop-color:#7931E4"/>
   <stop offset="1" style="stop-opacity:1; stop-color:fuchsia"/>
  </linearGradient>
  <linearGradient id="id20" gradientUnits="userSpaceOnUse" xlink:href="#id19" x1="6258.72" y1="9959.23" x2="7906.57" y2="6045.38">
  </linearGradient>
 </defs>
 <g id="Capa_x0020_1">
  <metadata id="CorelCorpID_0Corel-Layer"/>
  <rect class="fil0" x="1693.33" y="1693.33" width="17780" height="17780"/>
  <path class="fil1" d="M10204.61 10253.37c39.72,-88.08 287.79,-233.31 391.56,-271.72 158.69,-58.75 323.56,-72.93 498.08,-49.55 48.04,6.44 55.47,19.73 57.32,17.18 1.56,-2.15 4.88,2.95 7.01,4.81 87.5,-11.01 369.11,122.14 425.89,169.62 145.41,55.11 338.86,263.81 418.84,376.24 92.27,129.7 212.44,378.46 231.19,549.47 18.78,46.56 43.76,246.18 49.92,308.22 6.16,61.94 14.24,325.83 31.44,333.19 1.35,0.58 4.3,2.58 6.06,3.21l419.46 44.1c112.4,16.81 336.88,74.86 394.9,71.76 99.72,-191.08 37.95,-354.71 224.07,-333.68l476.45 91.82c4.33,0.92 8.99,2 13.94,3.19 349.42,-1691.19 490.27,-3173.89 261.54,-4287.1 -207.64,-21.65 -412.23,-39.05 -508.58,-42.01 -94.97,-2.91 -185.85,-14.32 -283.55,-15.92 -97.31,-1.6 -688.4,-7.55 -769.61,8.65 -49.11,9.8 -41.42,63.21 -84.26,176.42 -99.49,262.93 -226.54,505.16 -394.76,730.5 -103.44,138.58 -150.43,184.19 -262.34,288.48 -138.08,128.7 -275.39,224.54 -458.35,302.29 -979.27,416.11 -2289.58,-260.73 -2886.24,-1074.83 -140.03,-191.06 -39.11,-124.77 -444.51,-67.42 -562.93,79.62 -1050.25,213.7 -1551.22,422.82 -197.77,1482.05 45.86,2849.56 544.59,4150.88 219.53,-114.06 659.56,-323.49 857.88,-404.44 106.03,-43.29 216.31,-90.22 319.19,-124.44 171.52,-57.06 205.6,-80.37 289.91,65.72 135.97,235.6 122.07,314.51 323.33,556.59 32.76,-5.17 165.04,-89.75 213.32,-114.05l648.37 -319.77c5.5,-66.2 -9.2,-161.43 -6.02,-246.67 11.62,-312.19 118.92,-805.44 307.2,-1044.57 55.51,-70.48 182.89,-246.83 237.98,-278.99z"/>
  <path class="fil2" style="mask:url(#id0)" d="M10204.61 10253.37c39.72,-88.08 287.79,-233.31 391.56,-271.72 158.69,-58.75 323.56,-72.93 498.08,-49.55 48.04,6.44 55.47,19.73 57.32,17.18 1.56,-2.15 4.88,2.95 7.01,4.81 87.5,-11.01 369.11,122.14 425.89,169.62 145.41,55.11 338.86,263.81 418.84,376.24 92.27,129.7 212.44,378.46 231.19,549.47 18.78,46.56 43.76,246.18 49.92,308.22 6.16,61.94 14.24,325.83 31.44,333.19 1.35,0.58 4.3,2.58 6.06,3.21l419.46 44.1c112.4,16.81 336.88,74.86 394.9,71.76 99.72,-191.08 37.95,-354.71 224.07,-333.68l78.84 15.19c308.05,-1942.49 424.07,-3486.02 164.51,-4249.29 -94.97,-2.91 -185.85,-14.32 -283.55,-15.92 -97.31,-1.6 -688.4,-7.55 -769.61,8.65 -49.11,9.8 -41.42,63.21 -84.26,176.42 -99.49,262.93 -226.54,505.16 -394.76,730.5 -103.44,138.58 -150.43,184.19 -262.34,288.48 -138.08,128.7 -275.39,224.54 -458.35,302.29 -979.27,416.11 -2289.58,-260.73 -2886.24,-1074.83 -140.03,-191.06 -39.11,-124.77 -444.51,-67.42 -339.96,48.09 -652.33,116.04 -956.8,208.38 -194,1359.21 -66.1,2750.34 346.91,4169.74 175.66,-83.59 353.81,-165.05 461.14,-208.86 106.03,-43.29 216.31,-90.22 319.19,-124.44 171.52,-57.06 205.6,-80.37 289.91,65.72 135.97,235.6 122.07,314.51 323.33,556.59 32.76,-5.17 165.04,-89.75 213.32,-114.05l648.37 -319.77c5.5,-66.2 -9.2,-161.43 -6.02,-246.67 11.62,-312.19 118.92,-805.44 307.2,-1044.57 55.51,-70.48 182.89,-246.83 237.98,-278.99z"/>
  <path class="fil2" style="mask:url(#id2)" d="M10204.61 10253.37c39.72,-88.08 287.79,-233.31 391.56,-271.72 158.69,-58.75 323.56,-72.93 498.08,-49.55 48.04,6.44 55.47,19.73 57.32,17.18 1.56,-2.15 4.88,2.95 7.01,4.81 87.5,-11.01 369.11,122.14 425.89,169.62 145.41,55.11 338.86,263.81 418.84,376.24 92.27,129.7 212.44,378.46 231.19,549.47 18.78,46.56 43.76,246.18 49.92,308.22 6.16,61.94 14.24,325.83 31.44,333.19 1.35,0.58 4.3,2.58 6.06,3.21l419.46 44.1c112.4,16.81 336.88,74.86 394.9,71.76 99.72,-191.08 37.95,-354.71 224.07,-333.68l78.84 15.19c308.05,-1942.49 424.07,-3486.02 164.51,-4249.29 -94.97,-2.91 -185.85,-14.32 -283.55,-15.92 -97.31,-1.6 -688.4,-7.55 -769.61,8.65 -49.11,9.8 -41.42,63.21 -84.26,176.42 -99.49,262.93 -226.54,505.16 -394.76,730.5 -103.44,138.58 -150.43,184.19 -262.34,288.48 -138.08,128.7 -275.39,224.54 -458.35,302.29 -979.27,416.11 -2289.58,-260.73 -2886.24,-1074.83 -140.03,-191.06 -39.11,-124.77 -444.51,-67.42 -339.96,48.09 -652.33,116.04 -956.8,208.38 -194,1359.21 -66.1,2750.34 346.91,4169.74 175.66,-83.59 353.81,-165.05 461.14,-208.86 106.03,-43.29 216.31,-90.22 319.19,-124.44 171.52,-57.06 205.6,-80.37 289.91,65.72 135.97,235.6 122.07,314.51 323.33,556.59 32.76,-5.17 165.04,-89.75 213.32,-114.05l648.37 -319.77c5.5,-66.2 -9.2,-161.43 -6.02,-246.67 11.62,-312.19 118.92,-805.44 307.2,-1044.57 55.51,-70.48 182.89,-246.83 237.98,-278.99z"/>
  <path class="fil3" d="M9670.26 11990.51c16.18,-17.06 -5.9,-7.22 26,-16.52 5.74,-1.68 24.55,-1.53 30.44,-1.64l48.59 177.15c8.11,28.01 12.47,25.79 24.1,58.51 16.25,45.72 27.39,74.41 45.43,113.41 20.45,44.22 19.39,70 46.95,112.84l110.09 206.72c20.96,35.69 38.1,64.16 63.4,97.22 54.66,71.36 263.67,279 338,312.19l158.84 83.25c93.29,54.47 386.87,92.08 499.2,91.71 73.25,-0.24 213.28,-16.7 273.55,-34.12l205.75 -72.57c49.32,-14.78 23.2,-8.44 60.77,-29.68l238.07 -183.25c265.27,-277.09 302.57,-399.74 403.73,-752.41 28.08,-97.9 21.46,-194.9 35.91,-305.58 292.86,22.25 502.56,68.43 775.55,107.75 247.26,35.59 157.66,4.25 291.66,-327.97 157.74,5.63 579.98,117.04 752.36,160.64 3.38,56.48 -194.09,626.47 -226.99,723.15 -302.66,889.24 -743,1746.67 -1359.23,2443.83 -450.38,509.56 -1008.6,966.89 -1779.81,997.94 -747.95,30.09 -1523.99,-391.1 -2036.23,-826.22 -445.77,-378.66 -882.63,-880.1 -1202.33,-1367.68 -110.68,-168.81 -158.06,-231.39 -270.56,-423.95 -85.48,-146.28 -483.78,-818.78 -490.57,-908.29 250.55,-134.25 1372.16,-664.23 1592.88,-694.27 49.57,40.97 161.18,309.25 211.59,396.15 41.71,71.88 82.5,124.49 127.94,182.47 143.42,183.06 114.61,128.09 388.35,-18.24 143.59,-76.76 480.82,-247.3 616.57,-302.54zm-4733.39 -2734.52l108.93 503.32c39.67,171.45 77.84,325.85 126.63,492.46 48.61,165.96 167.15,544.75 230.21,703.24 28.08,70.55 69.5,160.51 87.93,231.54 -102.92,-40.17 -267.64,-215.65 -334.73,-313.68 -85.54,-124.97 -146.88,-267.35 -193.94,-438.71 -51.29,-186.75 -65.16,-344.15 -72.67,-553.98 -4.98,-139.1 9.83,-499.8 47.64,-624.19zm7297.63 1793.43c-34.05,-9.92 -27.17,-33.76 -36.68,-66.05l-62.95 -168.02c-42.66,-93.27 -100.1,-209.56 -157.76,-291.61 -59.09,-84.05 -198.67,-228.36 -285.78,-300.63l-78.49 -61.94c-39.71,-31.45 -16.25,10.97 -28.37,-37.46 -56.78,-47.48 -338.39,-180.63 -425.89,-169.62 -61.62,8.29 -108.09,-23.76 -298.49,-0.77 -100.77,12.16 -169.69,27.75 -251.2,62.74 -90.09,38.69 -127.86,67.93 -203.01,113.82 -61.34,37.48 -158.52,114.89 -201.27,123.49 -55.09,32.16 -182.47,208.51 -237.98,278.99 -188.28,239.13 -295.58,732.38 -307.2,1044.57 -3.18,85.24 11.52,180.47 6.02,246.67l-648.37 319.77c-48.28,24.3 -180.56,108.88 -213.32,114.05 -201.26,-242.08 -187.36,-320.99 -323.33,-556.59 -84.31,-146.09 -118.39,-122.78 -289.91,-65.72 -102.88,34.22 -213.16,81.15 -319.19,124.44 -209.55,85.53 -689.02,314.54 -893.02,422.88l-291.52 155.17c-64.5,-80.85 -325.24,-758.46 -364.13,-862.49 -327.5,-876.14 -449.32,-1631.44 -465.05,-2559.74 -1.77,-103.65 10.26,-539.63 38.14,-611.29 20.94,-37.28 220.71,-132.95 255.28,-149.31 617.71,-292.14 1188.05,-468.15 1869.05,-564.48 405.4,-57.35 304.48,-123.64 444.51,67.42 596.66,814.1 1906.97,1490.94 2886.24,1074.83 182.96,-77.75 320.27,-173.59 458.35,-302.29 111.91,-104.29 158.9,-149.9 262.34,-288.48 168.22,-225.34 295.27,-467.57 394.76,-730.5 42.84,-113.21 35.15,-166.62 84.26,-176.42 81.21,-16.2 672.3,-10.25 769.61,-8.65 97.7,1.6 188.58,13.01 283.55,15.92 201.89,6.2 878.95,75.79 1063.73,115.07 59.31,272.41 86.39,799.63 69.89,1100.02 -22.41,407.9 -51.06,759.04 -112.82,1156.01 -81.11,521.33 -209.73,1036.35 -339.82,1541.37 -28.71,111.45 -96.9,408.02 -149.58,483.77 -56.85,2.33 -224.77,-54.64 -298.3,-70.32l-476.45 -91.82c-186.12,-21.03 -124.35,142.6 -224.07,333.68 -58.02,3.1 -282.5,-54.95 -394.9,-71.76l-419.46 -44.1c-1.76,-0.63 -4.71,-2.63 -6.06,-3.21 -17.2,-7.36 -25.28,-271.25 -31.44,-333.19 -6.16,-62.04 -31.14,-261.66 -49.92,-308.22zm3417.41 -3341.42c191.22,363.26 174.29,915.84 8.46,1322.12 -44.8,109.78 -116.33,288.78 -171.13,378.32 -4.54,-30.45 54.47,-321.67 63.23,-392.33 55.7,-449.12 84.57,-620.73 95.81,-1085.17 1.64,-67.9 -6.29,-158 3.63,-222.94zm-9745.38 452.25c4.51,-115 47.61,-299.12 67.21,-421.08 20.97,-130.54 52.71,-276.16 86.95,-400.63 42.72,-155.3 106.2,-177.88 225.95,-247.38 95.08,-55.19 203.72,-112.56 307.14,-160.13 327.91,-150.83 642.68,-286.96 993.22,-399.25 64.62,-20.7 318.67,-102.44 368.48,-102.84 16.2,47.19 28.84,250.95 134.17,538.5 31.32,85.5 65.17,171.9 100.57,242.46 20.96,41.75 112.42,204.02 112.54,224.07 -599.07,48.5 -746.08,72.7 -1315.32,237.45 -295.09,85.41 -682.2,258.83 -953.78,414.07 -43.84,25.06 -89.78,58.37 -127.13,74.76zm1057.73 5161.48c-43.97,-27.36 -174.29,-219.8 -211.6,-272.49 -65.52,-92.51 -131.08,-179.21 -195.33,-283.72 -33.13,-53.91 -60.03,-90.71 -91.01,-143.38 -32.76,-55.66 -61,-102.5 -91.43,-152.15 -833.21,-1359.7 -1392.36,-3203.52 -1319.89,-4802.14 29.74,-655.79 230.87,-1646.55 892.3,-1674.79 282.52,-12.07 539.14,143.91 745.65,299.88 90.25,68.18 196.48,157.96 250.06,258.84l-406.71 166.1c-70.22,31.98 -125.07,62.56 -195.37,94.76 -74.54,34.14 -126.87,51.77 -194.47,95.05 -104.69,67.02 -211.06,167.6 -260.69,332.2 -253.18,839.63 -275.01,1842.44 -160.12,2676.01 109.32,793.11 345.23,1540.12 645.32,2240.42l135.49 302.07c9.26,38.76 -6.35,28.12 16.95,57.89 17.36,22.19 13.7,1.46 34.19,40.34 70.56,133.85 127.5,259.54 195.85,383.09l210.81 382.02zm1188 -6941.38c37.06,-22.88 248.02,-70 294.68,-81.05 357.4,-84.64 605.17,-133.38 971.82,17.61 403.71,166.27 598.33,468.54 984.75,567.73 227.46,58.39 452.95,7.02 612.24,-99.84 396.21,-265.78 336.33,-502.44 882.42,-840.26 23.59,-14.59 35.25,-25.51 70.36,-28.06 29.29,-2.12 65.69,-1.67 94.57,-1.91 119.84,-0.98 261.62,-3.04 379.29,7.2 38.64,69.01 27.74,471.83 22.92,535.15 -77.52,1018.86 -700.86,2270 -1901.66,2175.42 -656.8,-51.73 -1260.95,-381.65 -1634.05,-728.19 -207.74,-192.96 -353.09,-381.24 -510.83,-648.04 -97.82,-165.43 -281.46,-639.77 -266.51,-875.76zm5979.15 726.54c-301.75,-31.91 -778.94,-55.76 -1076.16,-30.23l-492.91 34.81c24.69,-176.24 84.92,-297.82 98.54,-569.68 5.66,-112.95 7.81,-212.65 8.98,-321.96 0.99,-93.07 -19.57,-205.03 -14.76,-290.03 250.93,-12.05 851.38,64.5 1141.62,103.21 149.23,19.89 248.59,15.72 321.91,85.05 244.85,231.52 442.33,630.9 516.98,1052.16 -93.45,9.95 -391.22,-51.38 -504.2,-63.33zm-4731.66 -991.69c400.75,-72.17 1715.44,-208.85 2162.13,-193.91l-118.97 109.82c-252.07,232.02 -418.74,651 -847.94,670.13 -283.76,12.66 -461.81,-153.43 -628.74,-267.12 -90.07,-61.36 -163.13,-121.88 -262.92,-177.31 -50.05,-27.8 -88.52,-51.33 -145.27,-75.94l-128.15 -47.29c-18.6,-7.47 -8.49,-3.6 -19.49,-9.88l-10.65 -8.5zm4596.72 6717.53l147.03 -430.86c49.24,-143.16 96.81,-295.66 139.95,-441.06 198.73,-669.98 327.68,-1177.9 471.49,-1862.04 137.12,-652.32 223.16,-1441.76 188.65,-2105.93 -16.21,-311.85 -57.55,-685.14 -127.22,-970.59 -99.73,-408.58 -206.12,-661.89 -462.12,-937.77 -39.72,-42.81 -89.58,-94.36 -149.79,-135.88 -157.53,-108.64 -229.12,-101.1 -455.75,-129 -24.78,-141.93 212.42,-366.95 271.74,-418.65 101.69,-88.61 351.61,-183.6 509.99,-164.37 320.82,38.95 498.62,478.91 604.6,779.4 250.63,710.58 288.85,1689.28 218.08,2460.52 -115.14,1254.66 -683.76,3069.84 -1288.69,4236.86l-43.19 91c-1.19,1.92 -2.51,4.28 -3.82,6.14 -1.33,1.9 -2.99,4.15 -4.41,5.92 -10.48,13.19 -5.81,7.56 -16.54,16.31zm-5859.48 -6667.57c6.64,-322.47 89.9,-606.69 186.96,-892.14 97.63,-287.15 220.16,-437.89 413.05,-640.61 267.29,-280.9 804.22,-625 1352.75,-691.75 731.2,-88.99 1327.03,162.12 1719.83,604.84 143.74,162.02 207.66,227.73 330.57,441.47 61.83,107.5 283.08,586.16 272.46,734.98 -366.19,-25.61 -799.66,-2.83 -1158.19,10.83 -951.18,36.26 -1952.66,149.29 -2873.79,376.06 -67.7,16.66 -179.22,52.15 -243.64,56.32zm-196.51 59.28l-773.32 242.94c-210.39,-265.08 -372.48,-396.19 -687.9,-551.88 -308.6,-152.33 -691.12,-198.09 -980.85,-7.08 -724.09,477.38 -703.3,1902.81 -641.64,2719.14 4.82,63.72 34.05,227.64 28.9,273.52 -2.41,21.44 -66.52,129.16 -89.81,223.22 -72.12,291.34 -114.32,531.59 -101.9,839.96 54.7,1358.82 879.67,1480.25 921.53,1521.78 7.23,7.18 167.16,357.78 195.13,411.08 73.82,140.69 129.56,267.32 205.82,400.89 149.67,262.15 303.03,516.34 466.02,752.88 60.82,88.28 191.09,274.55 259.64,352.09 47.16,53.36 88.24,109.24 134.8,166.93l221.41 242.03c106.88,101.52 206.9,202.8 330.36,288.17 158.5,109.61 88.85,74.92 226.33,245.96 368.95,458.98 734.94,848.3 1255.36,1219.69 467.8,333.85 1188.88,647.58 1895.03,607.15 457.76,-26.21 954.48,-228.44 1295.5,-516.67 465.82,-393.7 405,-375.21 772.16,-762.55 166.2,-175.32 275.39,-272.79 447.92,-482.54 182.01,-221.27 378.79,-480.39 527.16,-723.83 231.25,-379.42 474.58,-806.97 650.37,-1223.23 59.13,-140.01 130.9,-290.09 189.26,-439.61 268.12,-686.97 441.68,-1171.69 634.08,-1898.1 57.12,-215.65 7.74,-99.51 102.94,-203.59 52.6,-57.5 89.77,-104.79 136.25,-178.61 459.84,-730.32 644.19,-1587.36 161.47,-2343.69 -50.6,-79.28 -87.32,-86.91 -95.46,-209.23 -40,-600.84 -249.55,-1663.97 -678.07,-2047.42 -333.26,-298.22 -765.33,-200.12 -1081.32,79.67 -53.53,47.4 -113.13,105.96 -155.39,157.37 -74.64,90.83 -134.63,173.12 -187.31,281.8 -20.59,42.46 -26.53,80.96 -43.18,119.85 -47.02,6.24 -630.61,-43.61 -765.4,-49.39 -145.12,-6.22 -59.51,44.63 -166.34,-304.92 -86.93,-284.44 -241.64,-599.19 -416.29,-824.95 -397.71,-514.08 -950.99,-879.15 -1664.22,-893.92 -712.48,-14.75 -1282.8,251.61 -1786.73,684.75 -230.27,197.92 -372.5,474.46 -511,760.31 -134.34,277.25 -217.33,751.77 -231.31,1070.03z"/>
  <path class="fil4" d="M8379.44 7544.44l0.01 -0.02 -76.69 -110.45c-0.12,-20.05 -91.58,-182.32 -112.54,-224.07 -35.4,-70.56 -69.25,-156.96 -100.57,-242.46 -105.33,-287.55 -117.97,-491.31 -134.17,-538.5l-15 -204.5c13.98,-318.26 96.97,-792.78 231.31,-1070.03 138.5,-285.85 280.73,-562.39 511,-760.31 503.93,-433.14 1074.25,-699.5 1786.73,-684.75 713.23,14.77 1266.51,379.84 1664.22,893.92 174.65,225.76 329.36,540.51 416.29,824.95 68.42,223.9 57.9,283.52 79.63,299.08l25.44 202.5c-4.81,85 15.75,196.96 14.76,290.03 -1.17,109.31 -3.32,209.01 -8.98,321.96 -13.62,271.86 -73.85,393.44 -98.54,569.68l-56.28 172.81 -0.63 1.91c-9.34,28.66 -18.19,69.71 -39.15,125.08 -99.49,262.93 -226.54,505.16 -394.76,730.5 -103.44,138.58 -150.43,184.19 -262.34,288.48 -138.08,128.7 -275.39,224.54 -458.35,302.29 -979.27,416.11 -2289.58,-260.73 -2886.24,-1074.83 -44.99,-61.4 -65.12,-96.2 -85.15,-113.27zm-227.18 -1164.09c37.06,-22.88 248.02,-70 294.68,-81.05 357.4,-84.64 605.17,-133.38 971.82,17.61 403.71,166.27 598.33,468.54 984.75,567.73 227.46,58.39 452.95,7.02 612.24,-99.84 396.21,-265.78 336.33,-502.44 882.42,-840.26 23.59,-14.59 35.25,-25.51 70.36,-28.06 29.29,-2.12 65.69,-1.67 94.57,-1.91 119.84,-0.98 261.62,-3.04 379.29,7.2 38.64,69.01 27.74,471.83 22.92,535.15 -77.52,1018.86 -700.86,2270 -1901.66,2175.42 -656.8,-51.73 -1260.95,-381.65 -1634.05,-728.19 -207.74,-192.96 -353.09,-381.24 -510.83,-648.04 -97.82,-165.43 -281.46,-639.77 -266.51,-875.76zm1247.49 -265.15c400.75,-72.17 1715.44,-208.85 2162.13,-193.91l-118.97 109.82c-252.07,232.02 -418.74,651 -847.94,670.13 -283.76,12.66 -461.81,-153.43 -628.74,-267.12 -90.07,-61.36 -163.13,-121.88 -262.92,-177.31 -50.05,-27.8 -88.52,-51.33 -145.27,-75.94l-128.15 -47.29c-18.6,-7.47 -8.49,-3.6 -19.49,-9.88l-10.65 -8.5zm-1262.76 49.96c6.64,-322.47 89.9,-606.69 186.96,-892.14 97.63,-287.15 220.16,-437.89 413.05,-640.61 267.29,-280.9 804.22,-625 1352.75,-691.75 731.2,-88.99 1327.03,162.12 1719.83,604.84 143.74,162.02 207.66,227.73 330.57,441.47 61.83,107.5 283.08,586.16 272.46,734.98 -366.19,-25.61 -799.66,-2.83 -1158.19,10.83 -951.18,36.26 -1952.66,149.29 -2873.79,376.06 -67.7,16.66 -179.22,52.15 -243.64,56.32z"/>
  <path class="fil1" d="M12514.5 11864.08l-204.69 -12.82c-9.68,133.27 -9.18,242.21 -32.02,370.3 -14.46,81.13 -47.94,244.55 -82.81,299.78 -34.64,160.95 -221.54,366.92 -308.09,445.61 -89.54,81.4 -326.88,234.34 -492.84,245.08 -36.66,4.45 -94.59,21.9 -142.72,28.63 -214.3,29.96 -508.62,5.27 -699.87,-87.18 -2.26,-1.1 -4.76,-2.07 -7.07,-3.1 -111.16,-49.87 -228.87,-130.19 -316.82,-206.94 -232,-202.47 -476.52,-554.99 -535.58,-953.06l-21.73 0.13c-135.75,55.24 -472.98,225.78 -616.57,302.54 -273.74,146.33 -244.93,201.3 -388.35,18.24 -45.44,-57.98 -86.23,-110.59 -127.94,-182.47 -50.41,-86.9 -162.02,-355.18 -211.59,-396.15 -165.91,22.58 -840.76,327.6 -1272.15,534.73 349.39,885.31 815.09,1740.45 1338.23,2580.68 100.15,98.3 202.09,191.79 304.5,278.78 512.24,435.12 1288.28,856.31 2036.23,826.22 771.21,-31.05 1329.43,-488.38 1779.81,-997.94 309.25,-349.86 574.19,-740.09 799.67,-1154.44 194.05,-718.94 366.57,-1416.35 507.92,-2082.61 -178.03,-43.27 -376.31,-87.09 -473.73,-90.57 -134,332.22 -44.4,363.56 -291.66,327.97 -82.4,-11.87 -163.38,-44.22 -254.75,-57.05 -88.79,-12.46 -204.83,-21.73 -285.38,-34.36z"/>
  <path class="fil2" style="mask:url(#id4)" d="M12514.5 11864.08l-204.69 -12.82c-9.68,133.27 -9.18,242.21 -32.02,370.3 -14.46,81.13 -47.94,244.55 -82.81,299.78 -34.64,160.95 -221.54,366.92 -308.09,445.61 -89.54,81.4 -326.88,234.34 -492.84,245.08 -36.66,4.45 -94.59,21.9 -142.72,28.63 -214.3,29.96 -508.62,5.27 -699.87,-87.18 -2.26,-1.1 -4.76,-2.07 -7.07,-3.1 -111.16,-49.87 -228.87,-130.19 -316.82,-206.94 -232,-202.47 -476.52,-554.99 -535.58,-953.06l-21.73 0.13c-135.75,55.24 -472.98,225.78 -616.57,302.54 -273.74,146.33 -244.93,201.3 -388.35,18.24 -45.44,-57.98 -86.23,-110.59 -127.94,-182.47 -50.41,-86.9 -162.02,-355.18 -211.59,-396.15 -120.79,16.44 -511.32,182.59 -881.28,351.67 311.05,1031.47 771.72,2077.77 1368.39,3137.58 509.09,399.24 1226.45,759.05 1919.7,731.16 771.21,-31.05 1329.43,-488.38 1779.81,-997.94 135.06,-152.79 261.67,-313.29 380.23,-480.13 201.3,-1002.51 381.33,-1960.81 523.67,-2840.82 -26.77,-3.64 -50.45,-5.97 -70.04,-6.67 -134,332.22 -44.4,363.56 -291.66,327.97 -82.4,-11.87 -163.38,-44.22 -254.75,-57.05 -88.79,-12.46 -204.83,-21.73 -285.38,-34.36z"/>
  <path class="fil2" style="mask:url(#id6)" d="M12514.5 11864.08l-204.69 -12.82c-9.68,133.27 -9.18,242.21 -32.02,370.3 -14.46,81.13 -47.94,244.55 -82.81,299.78 -34.64,160.95 -221.54,366.92 -308.09,445.61 -89.54,81.4 -326.88,234.34 -492.84,245.08 -36.66,4.45 -94.59,21.9 -142.72,28.63 -214.3,29.96 -508.62,5.27 -699.87,-87.18 -2.26,-1.1 -4.76,-2.07 -7.07,-3.1 -111.16,-49.87 -228.87,-130.19 -316.82,-206.94 -232,-202.47 -476.52,-554.99 -535.58,-953.06l-21.73 0.13c-135.75,55.24 -472.98,225.78 -616.57,302.54 -273.74,146.33 -244.93,201.3 -388.35,18.24 -45.44,-57.98 -86.23,-110.59 -127.94,-182.47 -50.41,-86.9 -162.02,-355.18 -211.59,-396.15 -120.79,16.44 -511.32,182.59 -881.28,351.67 311.05,1031.47 771.72,2077.77 1368.39,3137.58 509.09,399.24 1226.45,759.05 1919.7,731.16 771.21,-31.05 1329.43,-488.38 1779.81,-997.94 135.06,-152.79 261.67,-313.29 380.23,-480.13 201.3,-1002.51 381.33,-1960.81 523.67,-2840.82 -26.77,-3.64 -50.45,-5.97 -70.04,-6.67 -134,332.22 -44.4,363.56 -291.66,327.97 -82.4,-11.87 -163.38,-44.22 -254.75,-57.05 -88.79,-12.46 -204.83,-21.73 -285.38,-34.36z"/>
  <path class="fil2" d="M8152.26 6380.35c-14.95,235.99 168.69,710.33 266.51,875.76 157.74,266.8 303.09,455.08 510.83,648.04 373.1,346.54 977.25,676.46 1634.05,728.19 1200.8,94.58 1824.14,-1156.56 1901.66,-2175.42 4.82,-63.32 15.72,-466.14 -22.92,-535.15 -117.67,-10.24 -259.45,-8.18 -379.29,-7.2 -28.88,0.24 -65.28,-0.21 -94.57,1.91 -35.11,2.55 -46.77,13.47 -70.36,28.06 -546.09,337.82 -486.21,574.48 -882.42,840.26 -159.29,106.86 -384.78,158.23 -612.24,99.84 -386.42,-99.19 -581.04,-401.46 -984.75,-567.73 -366.65,-150.99 -614.42,-102.25 -971.82,-17.61 -46.66,11.05 -257.62,58.17 -294.68,81.05z"/>
  <path class="fil5" d="M8767.89 7741.07c50.1,55.21 103.44,108.96 161.71,163.08 373.1,346.54 977.25,676.46 1634.05,728.19 578.04,45.53 1022.2,-220.84 1336.15,-622.98 251.38,-445.51 392.15,-1002.7 394.96,-1562.92 0.92,-185.13 -12.55,-363.13 -39.5,-532.46 -65.7,-0.68 -131.72,0.1 -192.16,0.59 -28.88,0.24 -65.28,-0.21 -94.57,1.91 -35.11,2.55 -46.77,13.47 -70.36,28.06 -546.09,337.82 -486.21,574.48 -882.42,840.26 -159.29,106.86 -384.78,158.23 -612.24,99.84 -386.42,-99.19 -581.04,-401.46 -984.75,-567.73 -366.65,-150.99 -614.42,-102.25 -971.82,-17.61 -19.99,4.73 -70.14,16.09 -123.84,29.32 20.45,482.33 186.29,981.25 444.79,1412.45z"/>
  <path class="fil2" d="M8136.99 6165.16c64.42,-4.17 175.94,-39.66 243.64,-56.32 921.13,-226.77 1922.61,-339.8 2873.79,-376.06 358.53,-13.66 792,-36.44 1158.19,-10.83 10.62,-148.82 -210.63,-627.48 -272.46,-734.98 -122.91,-213.74 -186.83,-279.45 -330.57,-441.47 -392.8,-442.72 -988.63,-693.83 -1719.83,-604.84 -548.53,66.75 -1085.46,410.85 -1352.75,691.75 -192.89,202.72 -315.42,353.46 -413.05,640.61 -97.06,285.45 -180.32,569.67 -186.96,892.14z"/>
  <path class="fil6" d="M8323.19 6124.05c20.94,-5.72 40.55,-11.06 57.44,-15.21 921.13,-226.77 1922.61,-339.8 2873.79,-376.06 296.11,-11.29 643.33,-28.78 961.56,-20.11 -208.83,-894.28 -822.41,-1501.97 -1718.37,-1543.47 -1123.95,-52.05 -2115.15,675.18 -2174.42,1954.85z"/>
  <path class="fil7" d="M6753.45 12939.71c-68.35,-123.55 -125.29,-249.24 -195.85,-383.09 -20.49,-38.88 -16.83,-18.15 -34.19,-40.34 -23.3,-29.77 -7.69,-19.13 -16.95,-57.89l-135.49 -302.07c-300.09,-700.3 -536,-1447.31 -645.32,-2240.42 -114.89,-833.57 -93.06,-1836.38 160.12,-2676.01 49.63,-164.6 156,-265.18 260.69,-332.2 67.6,-43.28 119.93,-60.91 194.47,-95.05 70.3,-32.2 125.15,-62.78 195.37,-94.76l406.71 -166.1c-53.58,-100.88 -159.81,-190.66 -250.06,-258.84 -206.51,-155.97 -463.13,-311.95 -745.65,-299.88 -661.43,28.24 -862.56,1019 -892.3,1674.79 -72.47,1598.62 486.68,3442.44 1319.89,4802.14 30.43,49.65 58.67,96.49 91.43,152.15 30.98,52.67 57.88,89.47 91.01,143.38 64.25,104.51 129.81,191.21 195.33,283.72 37.31,52.69 167.63,245.13 211.6,272.49l-210.81 -382.02z"/>
  <path class="fil8" d="M6753.45 12939.71c-68.35,-123.55 -125.29,-249.24 -195.85,-383.09 -20.49,-38.88 -16.83,-18.15 -34.19,-40.34 -23.3,-29.77 -7.69,-19.13 -16.95,-57.89l-135.49 -302.07c-300.09,-700.3 -536,-1447.31 -645.32,-2240.42 -114.89,-833.57 -93.06,-1836.38 160.12,-2676.01 49.63,-164.6 156,-265.18 260.69,-332.2 67.6,-43.28 119.93,-60.91 194.47,-95.05 70.3,-32.2 125.15,-62.78 195.37,-94.76l406.71 -166.1c-1409.45,-1626.17 -2677.83,1446.39 -568.12,5918.21 30.43,49.65 58.67,96.49 91.43,152.15 30.98,52.67 57.88,89.47 91.01,143.38 64.25,104.51 129.81,191.21 195.33,283.72 37.31,52.69 167.63,245.13 211.6,272.49l-210.81 -382.02z"/>
  <path class="fil7" d="M13996.47 12832.73c10.73,-8.75 6.06,-3.12 16.54,-16.31 1.42,-1.77 3.08,-4.02 4.41,-5.92 1.31,-1.86 2.63,-4.22 3.82,-6.14l43.19 -91c604.93,-1167.02 1173.55,-2982.2 1288.69,-4236.86 70.77,-771.24 32.55,-1749.94 -218.08,-2460.52 -105.98,-300.49 -283.78,-740.45 -604.6,-779.4 -158.38,-19.23 -408.3,75.76 -509.99,164.37 -59.32,51.7 -296.52,276.72 -271.74,418.65 226.63,27.9 298.22,20.36 455.75,129 60.21,41.52 110.07,93.07 149.79,135.88 256,275.88 362.39,529.19 462.12,937.77 69.67,285.45 111.01,658.74 127.22,970.59 34.51,664.17 -51.53,1453.61 -188.65,2105.93 -143.81,684.14 -272.76,1192.06 -471.49,1862.04 -43.14,145.4 -90.71,297.9 -139.95,441.06l-147.03 430.86z"/>
  <path class="fil9" d="M13996.47 12832.73c10.73,-8.75 6.06,-3.12 16.54,-16.31 1.42,-1.77 3.08,-4.02 4.41,-5.92 1.31,-1.86 2.63,-4.22 3.82,-6.14l43.19 -91c636.17,-1101.45 1960.01,-6051.57 460.21,-7256.32 -151.49,-154.07 -553.55,-10.28 -775.93,362.56 226.63,27.9 298.22,20.36 455.75,129 60.21,41.52 110.07,93.07 149.79,135.88 256,275.88 362.39,529.19 462.12,937.77 69.67,285.45 111.01,658.74 127.22,970.59 34.51,664.17 -51.53,1453.61 -188.65,2105.93 -143.81,684.14 -272.76,1192.06 -471.49,1862.04 -43.14,145.4 -90.71,297.9 -139.95,441.06l-147.03 430.86z"/>
  <path class="fil1" d="M12562.34 7111.47l492.91 -34.81c277.89,-23.87 713.1,-4.57 1015.14,24.12 -52,-205.85 -117.8,-397.91 -198.92,-574.67 19.39,-77.21 -504.97,-108.66 -1205.01,-125.33 -1.34,45.76 -3.13,92.14 -5.58,141.01 -13.62,271.86 -73.85,393.44 -98.54,569.68zm-4528.11 -314.98c-349.44,66.22 -1057.62,400.6 -1460.9,609.99 -32.02,151.34 -59.11,301.4 -81.99,450.36 170.94,-75.32 345.5,-141.83 496.1,-185.42 569.24,-164.75 716.25,-188.95 1315.32,-237.45 -0.12,-20.05 -91.58,-182.32 -112.54,-224.07 -35.4,-70.56 -69.25,-156.96 -100.57,-242.46 -22.34,-60.99 -40.51,-118.2 -55.42,-170.95z"/>
  <path class="fil5" d="M9399.75 6115.2l10.65 8.5c11,6.28 0.89,2.41 19.49,9.88l128.15 47.29c56.75,24.61 95.22,48.14 145.27,75.94 99.79,55.43 172.85,115.95 262.92,177.31 166.93,113.69 344.98,279.78 628.74,267.12 429.2,-19.13 595.87,-438.11 847.94,-670.13l118.97 -109.82c-446.69,-14.94 -1761.38,121.74 -2162.13,193.91z"/>
  <g id="_2420951037552">
   <path class="fil3" d="M5995.8 17591.38c-58.09,-13.1 -197.61,-130.39 -306.94,-184.04 -29.79,-14.62 -90.39,-29.27 -115.52,-51.19l730.74 -638.29c146.1,-132.89 382.4,-362.15 493.1,-529.41 50.02,-75.59 83.52,-138.18 127.9,-220.09 87.47,1.89 267.39,116.49 347.29,166.64 -5.31,121.33 -522.85,669.92 -604.19,757.64 -65.95,71.12 -110.6,115.73 -166.65,174.01l-421.13 430.99c-31.43,35.11 -46.41,57.56 -84.6,93.74zm786.05 -1721.44l-289.73 354.48c-189.77,208.8 -457.06,454.7 -674.64,631.66 -122.84,99.9 -232.28,203.52 -351.8,300.08l-36.48 -169.39c44.54,-45.55 114.98,-87.28 169.94,-131.32 36.47,-29.22 33.24,-41.63 76.49,-74.87 269.88,-207.41 423.25,-368.8 657.95,-572.75 31.86,-27.68 73.8,-43.02 57.47,-97.1 -7.42,-24.57 -31.82,-69.67 -44.39,-108.72 -90.55,-281.31 -188.24,-596.71 -179.51,-899.12 1.78,-61.85 13.64,-212.84 68.4,-235.85 167.19,-70.27 353.92,418.99 392.65,531.51l153.65 471.39zm-602.14 208.26c-40.39,38.06 -327.67,258.09 -363.77,271.35 -59.56,-92.54 -176.86,-429.27 -209.55,-545.84 -114.67,-408.89 -123.97,-914.56 96.33,-1287.27 98.43,-166.52 196.38,-304.7 389.47,-375.63 419.86,-154.25 784.86,336.47 912.26,559.48 209.93,367.5 289.97,724.34 325.67,1208.21 -53.96,-13.2 -167.71,-102.57 -254.38,-135.2 -171.56,-64.6 -66.53,73.62 -218.69,-377.47 -40.42,-119.83 -78.48,-229.38 -130.56,-341.71 -76.34,-164.66 -273.15,-466.76 -528.23,-408.64 -358.09,81.6 -249.92,785.72 -150.77,1089.04 19.22,58.8 39.14,112.84 62.88,172.07 20.83,51.97 58.96,123.69 69.34,171.61zm-488.58 369.19l-963.82 727.72 -103.63 -235.95c-5.05,-15.33 -0.76,-7.91 -8.33,-21.74 -9.47,-17.3 -3.26,-7.8 -14.9,-19.53 9.73,175.79 61.71,235.3 74.81,316.27 -23.93,27.81 -130.03,107.24 -166.65,122.87 -35.98,-105.75 -123.59,-267.43 -138.89,-335.94 -13.33,18.54 -6.41,-4.37 -9.61,24.1 -2.7,24.02 6.85,39.3 13.77,69.44 28.33,123.45 39.69,152.92 94.81,270.99 -16.02,25.79 -109.64,92.98 -138.97,111.43 -27.42,-26.84 -202.66,-479.72 -215.44,-543.46 -13.21,21.11 -13.83,-26.29 -9.38,39.57 0.06,0.93 8.79,34.79 9.89,38.65l62.29 222.21c19.59,57.33 95.45,237.81 98.52,283.06l-95.25 74.15c-189.08,-305.64 -273.93,-989.63 -270.54,-1371.03 1.19,-134.77 4.59,-267.64 12.18,-399.11 6.33,-109.66 57.24,-131.19 165.4,-240.74 59.78,-60.54 401.2,-376.87 429.06,-388.84 9.95,119.27 18.16,248.44 68.98,356.58 15.21,32.37 32.41,70.58 60.36,89.26 -14.82,-148.28 -56.95,-259.22 -64.46,-401.57 -5.72,-108.61 6.42,-113.73 67.73,-163.46 27.76,-22.52 97.84,-90.16 134.66,-103.35 -23.24,331.34 41.87,578.92 185.68,802.16 -9.21,-46.28 -48.8,-112.08 -65.79,-172.61 -16.31,-58.11 -27.72,-145.28 -39.02,-206.6 -30.51,-165.49 -32.31,-294.22 -31.21,-469.43 1.04,-2.54 157.13,-132.53 202.2,-147.8 -12.89,301.93 48.72,771.91 180.92,1025.5 -4.34,-60.63 -28.44,-114.2 -40.75,-180.53 -12.79,-68.88 -18.21,-142.94 -26.77,-212.97 -19.92,-162.83 -65.88,-465.32 -50.48,-633.21 7.33,-79.85 15.55,-66.73 104.77,-131.45 47.4,-34.38 91.33,-66.95 138.62,-98.14 38.83,-25.61 103.18,-76.06 144.47,-93.24 -40.75,149.79 -102.41,170.38 -150.32,488.85 -57.57,382.74 -3.27,725.41 144.49,1076.22l154.2 328.89c18.01,35.29 43.76,68.58 56.4,102.78zm-354.58 961.04c59.94,0.91 409.02,342.39 600.41,403.79 97.98,31.43 152.27,-3.18 198.39,-51.46 44.08,-46.15 85.4,-92.33 126.71,-138.42l257.77 -262.81c85.32,-89.99 171.44,-181.4 258.64,-271.44l376.97 -408.81c80.13,-83.23 290.71,-358.16 326.48,-450.24 73.1,-188.18 69.87,-253.11 55.01,-472.79 -43.22,-638.67 -330.21,-1405.45 -877.52,-1742.8 -101.65,-62.66 -263.41,-127.1 -398.83,-120.18 -210.89,10.76 -250.09,34.93 -411.24,107.09 -528.67,236.74 -845.9,487.62 -1275.94,825.72 -96.16,75.6 -207.18,164.86 -285.96,244.27l-508.32 533.08c-52.04,63.39 -81.01,330.23 -82.71,436.89 -8.02,500.74 20.9,939.32 180.69,1399.43 77.35,222.74 103.79,219.97 163.28,358.01 16.29,37.81 7.7,74.06 45.97,87.56 61.44,21.68 193.83,-84.53 263.41,-130.5 209.46,-138.36 415.52,-276.47 615.93,-425.19 55.22,-40.99 257.99,-197.62 301.55,-218.94 4.29,67.99 11.94,245.91 40.46,298.89l28.85 -1.15z"/>
   <path class="fil10" d="M5691.13 16447.39c-12.64,-34.2 -38.39,-67.49 -56.4,-102.78l-154.2 -328.89c-147.76,-350.81 -202.06,-693.48 -144.49,-1076.22 47.91,-318.47 109.57,-339.06 150.32,-488.85 -41.29,17.18 -105.64,67.63 -144.47,93.24 -47.29,31.19 -91.22,63.76 -138.62,98.14 -89.22,64.72 -97.44,51.6 -104.77,131.45 -15.4,167.89 30.56,470.38 50.48,633.21 8.56,70.03 13.98,144.09 26.77,212.97 12.31,66.33 36.41,119.9 40.75,180.53 -132.2,-253.59 -193.81,-723.57 -180.92,-1025.5 -45.07,15.27 -201.16,145.26 -202.2,147.8 -1.1,175.21 0.7,303.94 31.21,469.43 11.3,61.32 22.71,148.49 39.02,206.6 16.99,60.53 56.58,126.33 65.79,172.61 -143.81,-223.24 -208.92,-470.82 -185.68,-802.16 -36.82,13.19 -106.9,80.83 -134.66,103.35 -61.31,49.73 -73.45,54.85 -67.73,163.46 7.51,142.35 49.64,253.29 64.46,401.57 -27.95,-18.68 -45.15,-56.89 -60.36,-89.26 -50.82,-108.14 -59.03,-237.31 -68.98,-356.58 -27.86,11.97 -369.28,328.3 -429.06,388.84 -108.16,109.55 -159.07,131.08 -165.4,240.74 -7.59,131.47 -10.99,264.34 -12.18,399.11 -3.39,381.4 81.46,1065.39 270.54,1371.03l95.25 -74.15c-3.07,-45.25 -78.93,-225.73 -98.52,-283.06l-62.29 -222.21c-1.1,-3.86 -9.83,-37.72 -9.89,-38.65 -4.45,-65.86 -3.83,-18.46 9.38,-39.57 12.78,63.74 188.02,516.62 215.44,543.46 29.33,-18.45 122.95,-85.64 138.97,-111.43 -55.12,-118.07 -66.48,-147.54 -94.81,-270.99 -6.92,-30.14 -16.47,-45.42 -13.77,-69.44 3.2,-28.47 -3.72,-5.56 9.61,-24.1 15.3,68.51 102.91,230.19 138.89,335.94 36.62,-15.63 142.72,-95.06 166.65,-122.87 -13.1,-80.97 -65.08,-140.48 -74.81,-316.27 11.64,11.73 5.43,2.23 14.9,19.53 7.57,13.83 3.28,6.41 8.33,21.74l103.63 235.95 963.82 -727.72z"/>
   <path class="fil11" d="M5691.13 16447.39c-12.64,-34.2 -38.39,-67.49 -56.4,-102.78l-154.2 -328.89c-147.76,-350.81 -202.06,-693.48 -144.49,-1076.22l1.41 -9.19 -225.56 175.04c11.91,112.41 27.51,223.03 37.09,301.34 8.56,70.03 13.98,144.09 26.77,212.97 12.31,66.33 36.41,119.9 40.75,180.53 -84.08,-161.29 -139.6,-410.1 -165.56,-647.54l-199.89 155.12c3.72,27.22 8.19,55.12 13.54,84.15 11.3,61.32 22.71,148.49 39.02,206.6 16.99,60.53 56.58,126.33 65.79,172.61 -83.33,-129.36 -140.23,-266.9 -168.84,-424.17l-179.04 138.94c9.73,47.72 18.84,97.08 24.27,151.45 -27.95,-18.68 -45.15,-56.89 -60.36,-89.26 -3.95,-8.4 -7.64,-16.94 -11.09,-25.58l-379.63 294.61c-60.06,556.07 46.96,1095.44 174.76,1632.73 38.62,-27.72 87.99,-66.15 99.22,-84.23 -55.12,-118.07 -66.48,-147.54 -94.81,-270.99 -6.92,-30.14 -16.47,-45.42 -13.77,-69.44 3.2,-28.47 -3.72,-5.56 9.61,-24.1 15.3,68.51 102.91,230.19 138.89,335.94 36.62,-15.63 142.72,-95.06 166.65,-122.87 -13.1,-80.97 -65.08,-140.48 -74.81,-316.27 11.64,11.73 5.43,2.23 14.9,19.53 7.57,13.83 3.28,6.41 8.33,21.74l103.63 235.95 963.82 -727.72z"/>
   <path class="fil10" d="M6179.71 16078.2c-10.38,-47.92 -48.51,-119.64 -69.34,-171.61 -23.74,-59.23 -43.66,-113.27 -62.88,-172.07 -99.15,-303.32 -207.32,-1007.44 150.77,-1089.04 255.08,-58.12 451.89,243.98 528.23,408.64 52.08,112.33 90.14,221.88 130.56,341.71 152.16,451.09 47.13,312.87 218.69,377.47 86.67,32.63 200.42,122 254.38,135.2 -35.7,-483.87 -115.74,-840.71 -325.67,-1208.21 -127.4,-223.01 -492.4,-713.73 -912.26,-559.48 -193.09,70.93 -291.04,209.11 -389.47,375.63 -220.3,372.71 -211,878.38 -96.33,1287.27 32.69,116.57 149.99,453.3 209.55,545.84 36.1,-13.26 323.38,-233.29 363.77,-271.35z"/>
   <path class="fil12" d="M5995.8 17591.38c38.19,-36.18 53.17,-58.63 84.6,-93.74l421.13 -430.99c56.05,-58.28 100.7,-102.89 166.65,-174.01 81.34,-87.72 598.88,-636.31 604.19,-757.64 -79.9,-50.15 -259.82,-164.75 -347.29,-166.64 -44.38,81.91 -77.88,144.5 -127.9,220.09 -110.7,167.26 -347,396.52 -493.1,529.41l-730.74 638.29c25.13,21.92 85.73,36.57 115.52,51.19 109.33,53.65 248.85,170.94 306.94,184.04z"/>
   <path class="fil13" d="M6628.2 15398.55c-38.73,-112.52 -225.46,-601.78 -392.65,-531.51 -54.76,23.01 -66.62,174 -68.4,235.85 -8.73,302.41 88.96,617.81 179.51,899.12 12.57,39.05 36.97,84.15 44.39,108.72 16.33,54.08 -25.61,69.42 -57.47,97.1 -234.7,203.95 -388.07,365.34 -657.95,572.75 -43.25,33.24 -40.02,45.65 -76.49,74.87 -54.96,44.04 -125.4,85.77 -169.94,131.32l36.48 169.39c119.52,-96.56 228.96,-200.18 351.8,-300.08 217.58,-176.96 484.87,-422.86 674.64,-631.66l289.73 -354.48 -153.65 -471.39z"/>
  </g>
  <g id="_2420951035728">
   <path class="fil3" d="M13697.87 15833.9c43.39,-31.3 291.09,-154.66 373.77,-151.12 9.21,10.86 118,256.34 265.04,446.6 148.83,192.57 505.7,568.88 697.06,744.91l348.67 370.13c-24.73,12.12 1.22,0.71 -14.32,6.92 -9.24,3.68 -19.55,5.79 -30.59,8.99 -174.98,50.49 -323.67,185.31 -404.81,187.86 -31.32,-33.78 -49.96,-61.97 -77,-95.51 -249.09,-308.97 -1133.44,-1295.2 -1157.82,-1518.78zm1877.29 1019.73l-42.59 185.08c-48.44,-25.21 -644.05,-630.26 -687.55,-676.65 -257.51,-274.57 -395.61,-448.08 -608.13,-768.45l188.26 -466.93c59.26,-142.26 252.18,-554.14 427.56,-547.07 241.95,9.76 -64.41,1027.45 -211.48,1273.6 -36.9,61.77 -9.49,86.26 100.73,191.43 140.39,133.96 325.92,349.87 490.03,491.24l126.83 113.62c20.09,22.23 16.22,30.04 37.41,52.42 28.78,30.4 147.71,135 178.93,151.71zm-1919.02 -1264.99c59.85,-602.66 343.1,-1309.95 808.12,-1634.84 708.87,-495.27 1160.35,306.09 1143.8,989.04 -5.58,230.18 -62.55,484.61 -134.47,682.37 -38.36,105.48 -204.59,494.38 -260.55,545.77l-361.22 -317.05c56.56,-130.29 112.03,-203.55 180.3,-380.42 93.53,-242.29 204,-720.88 79.75,-960.31 -64.53,-124.36 -208.34,-212.64 -388.4,-140.23 -357.95,143.95 -517.24,704.34 -660.72,1040.99 -32.03,75.14 -30.87,7.5 -200.6,79.97 -76.27,32.58 -127.55,70.34 -206.01,94.71zm2046.84 -1375.08l351.15 278.67c69.66,61.44 22.93,258.34 12,341 -19.73,149.18 -51.58,290.86 -82.24,430.78 -16.47,75.13 -23.1,141.65 -45.05,215.22 -9.12,30.61 -59.05,164.82 -54.97,177.29 70.71,-153.96 140.15,-304.47 184.89,-477.22 43.27,-167.06 91.26,-398.87 83.67,-590.11 40.1,14.36 198.74,170.01 200.06,173.41 2.37,163.24 -22.41,321.13 -60.41,468.12 -16.81,65.1 -32.11,140.9 -53.04,208.01 -23.2,74.43 -61.8,122.49 -83,183.44 59.81,-38.21 154.19,-259.18 181.83,-344.48 44.66,-137.9 66.86,-302.58 66.88,-464.88 34.49,15.86 98.43,89.45 130.26,119.62 63.73,60.41 80.54,52.74 61.88,185.33 -21.22,150.81 -84.44,271.03 -98.96,413.97 82.42,-47.48 164.84,-329.21 168.9,-460.19 30.38,8.84 35.51,20.49 56.88,42.72 20.2,21.03 33.48,35.02 53.62,56.27 38.11,40.22 66.08,74.86 107.91,112.68 70.81,64.05 140.59,159.41 209.96,230.39 30.5,31.22 68.81,76.65 97.62,112.71 58.13,72.75 56.94,45.03 55.33,167.52 -1.95,148.95 -10.51,284.39 -17.02,431.04 -14.46,325.95 -112.98,759.81 -234.84,1061.16 -46.21,114.28 -100.14,200.54 -141.85,299.16 -30.77,-11.8 -82.31,-55.4 -103.31,-89.26 42.48,-124.69 207.68,-413.28 227.75,-583.82l-11.94 12.33c-14.49,20.06 -2.44,-0.76 -13.15,20.45 -4.64,9.19 -9.81,26.49 -13.6,36.68 -8.45,22.72 -17.82,44.62 -30.07,68.98l-205.26 406.77c-30.48,-12.46 -127.67,-94.38 -144.06,-121.58 20.09,-54.83 62.01,-117.5 89.13,-184.51 21.21,-52.45 59,-164.67 67.33,-220.45 -7.22,7.63 -7.45,6.34 -15.95,19.56 -19.51,30.32 -147.88,306.52 -186.68,345.8l-159.57 -131.12c7.43,-67.64 97.37,-184.28 108.9,-381.23 -1.26,2.03 -89.43,238.69 -159.59,330.32 -43.01,-19.11 -200.8,-168.26 -244.48,-204.67l-481.73 -419.32c-44.45,-39.18 -215.54,-171.34 -235.52,-215.68 161.65,-215.97 358.63,-601.68 435.66,-908.13 81.7,-325.01 76.48,-701.43 -31.78,-1026.85 -10.87,-32.66 -38.46,-91.91 -43.54,-125.9zm33.48 2793.41c36.43,12.96 253,209.09 305.27,251.05 262.51,210.73 499,414.14 786.72,615.11 132.25,92.39 137.86,-31.67 149.58,-54.68l107.37 -173.07c35.84,-67.65 61.04,-123.12 90.2,-188.61 196.71,-441.79 254.78,-880.54 292.33,-1366.76 8.99,-116.29 2.19,-420.47 -37.48,-511.52 -13.83,-31.75 -471.18,-569.51 -507.25,-613.68 -93.66,-114.66 -313.37,-296.42 -423.58,-407.57l-447.64 -383.27c-210.05,-154.68 -425.32,-302.81 -668.99,-442.58 -277.62,-159.27 -540.84,-234.79 -860.71,-80.39 -487.59,235.37 -795.35,764.92 -959.09,1264.89 -74.54,227.6 -194.25,704.6 -105.08,951.14 51.52,142.42 111.59,241.96 197.77,362.57 80.9,113.22 149.32,206.52 234.44,316.25 178.35,229.91 436.23,541.83 631.43,760.33 42.85,47.96 85.1,102.16 127.41,152.91 118.79,142.52 157.4,253.33 311.38,232.14 130.32,-17.94 414.67,-220.31 538.46,-299.78 164.63,-105.7 96.28,-82.24 177.47,-72.88 27.54,-84.75 53.24,-208.98 59.99,-311.6z"/>
   <path class="fil10" d="M16066.13 14833.23c10.93,-82.66 57.66,-279.56 -12,-341l-351.15 -278.67c5.08,33.99 32.67,93.24 43.54,125.9 108.26,325.42 113.48,701.84 31.78,1026.85 -77.03,306.45 -274.01,692.16 -435.66,908.13 19.98,44.34 191.07,176.5 235.52,215.68l481.73 419.32c43.68,36.41 201.47,185.56 244.48,204.67 70.16,-91.63 158.33,-328.29 159.59,-330.32 -11.53,196.95 -101.47,313.59 -108.9,381.23l159.57 131.12c38.8,-39.28 167.17,-315.48 186.68,-345.8 8.5,-13.22 8.73,-11.93 15.95,-19.56 -8.33,55.78 -46.12,168 -67.33,220.45 -27.12,67.01 -69.04,129.68 -89.13,184.51 16.39,27.2 113.58,109.12 144.06,121.58l205.26 -406.77c12.25,-24.36 21.62,-46.26 30.07,-68.98 3.79,-10.19 8.96,-27.49 13.6,-36.68 10.71,-21.21 -1.34,-0.39 13.15,-20.45l11.94 -12.33c-20.07,170.54 -185.27,459.13 -227.75,583.82 21,33.86 72.54,77.46 103.31,89.26 41.71,-98.62 95.64,-184.88 141.85,-299.16 121.86,-301.35 220.38,-735.21 234.84,-1061.16 6.51,-146.65 15.07,-282.09 17.02,-431.04 1.61,-122.49 2.8,-94.77 -55.33,-167.52 -28.81,-36.06 -67.12,-81.49 -97.62,-112.71 -69.37,-70.98 -139.15,-166.34 -209.96,-230.39 -41.83,-37.82 -69.8,-72.46 -107.91,-112.68 -20.14,-21.25 -33.42,-35.24 -53.62,-56.27 -21.37,-22.23 -26.5,-33.88 -56.88,-42.72 -4.06,130.98 -86.48,412.71 -168.9,460.19 14.52,-142.94 77.74,-263.16 98.96,-413.97 18.66,-132.59 1.85,-124.92 -61.88,-185.33 -31.83,-30.17 -95.77,-103.76 -130.26,-119.62 -0.02,162.3 -22.22,326.98 -66.88,464.88 -27.64,85.3 -122.02,306.27 -181.83,344.48 21.2,-60.95 59.8,-109.01 83,-183.44 20.93,-67.11 36.23,-142.91 53.04,-208.01 38,-146.99 62.78,-304.88 60.41,-468.12 -1.32,-3.4 -159.96,-159.05 -200.06,-173.41 7.59,191.24 -40.4,423.05 -83.67,590.11 -44.74,172.75 -114.18,323.26 -184.89,477.22 -4.08,-12.47 45.85,-146.68 54.97,-177.29 21.95,-73.57 28.58,-140.09 45.05,-215.22 30.66,-139.92 62.51,-281.6 82.24,-430.78z"/>
   <path class="fil11" d="M15827.54 14742.46c17.8,211.64 0.21,427.16 -49.24,623.85 -77.03,306.45 -274.01,692.16 -435.66,908.13 19.98,44.34 191.07,176.5 235.52,215.68l481.73 419.32c43.68,36.41 201.47,185.56 244.48,204.67 70.16,-91.63 158.33,-328.29 159.59,-330.32 -11.53,196.95 -101.47,313.59 -108.9,381.23l159.57 131.12c38.8,-39.28 167.17,-315.48 186.68,-345.8 8.5,-13.22 8.73,-11.93 15.95,-19.56 -8.33,55.78 -46.12,168 -67.33,220.45 -27.12,67.01 -69.04,129.68 -89.13,184.51 16.39,27.2 113.58,109.12 144.06,121.58l52.54 -104.11c147.49,-534.44 268.25,-1072.66 230.42,-1633.19l-395.83 -333.5c-27.99,69.51 -61.02,126.19 -94.06,145.21 6.7,-66.02 23.81,-127.19 42.36,-188.77l-178.47 -150.37c-7.1,29.28 -15.09,57.72 -23.95,85.1 -27.64,85.3 -122.02,306.27 -181.83,344.48 21.2,-60.95 59.8,-109.01 83,-183.44 20.93,-67.11 36.23,-142.91 53.04,-208.01 6.87,-26.55 13.3,-53.45 19.21,-80.69l-197.72 -166.59c-13.77,70.25 -29.58,137.06 -44.81,195.86 -44.74,172.75 -114.18,323.26 -184.89,477.22 -4.08,-12.47 45.85,-146.68 54.97,-177.29 21.95,-73.57 28.58,-140.09 45.05,-215.22 23.88,-109.01 48.49,-219.08 67.53,-332.94l-223.88 -188.61z"/>
   <path class="fil10" d="M13656.14 15588.64c78.46,-24.37 129.74,-62.13 206.01,-94.71 169.73,-72.47 168.57,-4.83 200.6,-79.97 143.48,-336.65 302.77,-897.04 660.72,-1040.99 180.06,-72.41 323.87,15.87 388.4,140.23 124.25,239.43 13.78,718.02 -79.75,960.31 -68.27,176.87 -123.74,250.13 -180.3,380.42l361.22 317.05c55.96,-51.39 222.19,-440.29 260.55,-545.77 71.92,-197.76 128.89,-452.19 134.47,-682.37 16.55,-682.95 -434.93,-1484.31 -1143.8,-989.04 -465.02,324.89 -748.27,1032.18 -808.12,1634.84z"/>
   <path class="fil12" d="M13697.87 15833.9c24.38,223.58 908.73,1209.81 1157.82,1518.78 27.04,33.54 45.68,61.73 77,95.51 81.14,-2.55 229.83,-137.37 404.81,-187.86 11.04,-3.2 21.35,-5.31 30.59,-8.99 15.54,-6.21 -10.41,5.2 14.32,-6.92l-348.67 -370.13c-191.36,-176.03 -548.23,-552.34 -697.06,-744.91 -147.04,-190.26 -255.83,-435.74 -265.04,-446.6 -82.68,-3.54 -330.38,119.82 -373.77,151.12z"/>
   <path class="fil13" d="M15575.16 16853.63c-31.22,-16.71 -150.15,-121.31 -178.93,-151.71 -21.19,-22.38 -17.32,-30.19 -37.41,-52.42l-126.83 -113.62c-164.11,-141.37 -349.64,-357.28 -490.03,-491.24 -110.22,-105.17 -137.63,-129.66 -100.73,-191.43 147.07,-246.15 453.43,-1263.84 211.48,-1273.6 -175.38,-7.07 -368.3,404.81 -427.56,547.07l-188.26 466.93c212.52,320.37 350.62,493.88 608.13,768.45 43.5,46.39 639.11,651.44 687.55,676.65l42.59 -185.08z"/>
  </g>
  <path class="fil14" d="M4936.87 9255.99c-37.81,124.39 -52.62,485.09 -47.64,624.19 7.51,209.83 21.38,367.23 72.67,553.98 47.06,171.36 108.4,313.74 193.94,438.71 67.09,98.03 231.81,273.51 334.73,313.68 -18.43,-71.03 -59.85,-160.99 -87.93,-231.54 -63.06,-158.49 -181.6,-537.28 -230.21,-703.24 -48.79,-166.61 -86.96,-321.01 -126.63,-492.46l-108.93 -503.32z"/>
  <path class="fil3" d="M10854.92 7856.35c-318.96,-50.87 -604.01,86.02 -644.86,297.81 -9.81,50.87 3.1,117.01 70.96,121 76.25,4.47 210.16,-242.56 557.6,-188.75 214.88,33.29 129.43,182.5 297.56,170.23 48.86,-3.56 90.92,-38.58 100.33,-95.92 19.96,-121.59 -157.88,-268.69 -381.59,-304.37z"/>
  <path class="fil14" d="M15651.91 7708c-9.92,64.94 -1.99,155.04 -3.63,222.94 -11.24,464.44 -40.11,636.05 -95.81,1085.17 -8.76,70.66 -67.77,361.88 -63.23,392.33 54.8,-89.54 126.33,-268.54 171.13,-378.32 165.83,-406.28 182.76,-958.86 -8.46,-1322.12z"/>
  <ellipse class="fil3" transform="matrix(1.07721 0.0498915 -0.0355216 1.05025 10967.7 11557.1)" rx="1406.7" ry="1719.79"/>
  <g id="_2420951033744">
   <path class="fil7" style="mask:url(#id8)" d="M10968.57 9906.03c752.03,-15.99 1361.3,710.25 1360.84,1622.09 -0.47,911.84 -610.49,1664 -1362.53,1679.98 -752.02,15.99 -1361.29,-710.24 -1360.83,-1622.09 0.46,-911.84 610.48,-1664 1362.52,-1679.98z"/>
   <path class="fil15" style="mask:url(#id10)" d="M10968.57 9906.03c752.03,-15.99 1361.3,710.25 1360.84,1622.09 -0.47,911.84 -610.49,1664 -1362.53,1679.98 -752.02,15.99 -1361.29,-710.24 -1360.83,-1622.09 0.46,-911.84 610.48,-1664 1362.52,-1679.98z"/>
   <g>
    <path class="fil2" style="mask:url(#id12)" d="M10973.69 10045.94c658.42,-16.03 1189.52,647.54 1186.23,1482.11 -3.3,834.57 -539.72,1524.13 -1198.16,1540.14 -658.42,16.03 -1189.52,-647.54 -1186.22,-1482.11 3.29,-834.57 539.72,-1524.12 1198.15,-1540.14z"/>
    <path class="fil2" style="mask:url(#id14)" d="M10973.69 10045.94c658.42,-16.03 1189.52,647.54 1186.23,1482.11 -3.3,834.57 -539.72,1524.13 -1198.16,1540.14 -658.42,16.03 -1189.52,-647.54 -1186.22,-1482.11 3.29,-834.57 539.72,-1524.12 1198.15,-1540.14z"/>
   </g>
  </g>
  <path class="fil16" d="M10259.6 11942.98c71.24,-6.21 142.02,-12.14 213.48,-17.39 -0.77,-40.63 -1.77,-81.37 -3.21,-122.18 31.58,-2.14 63.16,-4.28 94.53,-6.34 -2.16,-57.55 -5,-115.28 -7.83,-172.92 -31.59,1.87 -63.17,3.93 -94.75,5.98 -4.23,-79.05 -8.7,-158.02 -12.7,-237.08 -4,-78.95 -6.44,-158.11 -8.21,-237.19 -104.17,6.24 -208.33,13.98 -312.26,23.66 -64.47,109.67 -114.25,199.24 -154.79,279.27 -40.82,80.57 -73.78,151.53 -104.07,223.23 3.07,60.72 6.13,121.54 8.51,182.27 125.88,-16.93 251.98,-31.5 378.09,-43.94 1.45,40.91 2.44,81.81 3.21,122.63zm-204.33 -273.85c27.39,-65.5 54.48,-122.5 82.9,-177.64 28.42,-55.15 59.77,-109.27 95.91,-169.73 1.35,-0.11 2.69,-0.21 4.26,-0.31 2.61,55.62 5.21,111.16 8.26,166.75 3.04,55.53 5.88,111.05 8.93,166.57 -66.75,6.43 -133.5,13.04 -200.03,20.71 0,-2.12 -0.23,-4.23 -0.23,-6.35zm925.49 251.64c105.96,-3.33 191.81,-43.01 249.53,-113.21 57.54,-69.99 86.15,-170.71 79.48,-295.49 -6.72,-125.77 -45.65,-224.91 -107.83,-292.73 -61.83,-67.44 -148.15,-104.01 -253.44,-102.34 -104.85,1.65 -191.67,40.93 -249.52,111.88 -57.61,70.65 -86.41,173.46 -79.69,300.97 6.67,126.64 45.33,226.32 107.16,293.26 61.71,66.82 148.59,100.99 254.31,97.66zm-4.46 -171.91c-34.71,1.06 -64.24,-16.01 -85.94,-53.43 -21.71,-37.39 -36.22,-95.17 -40.55,-174.93 -4.35,-80 4.19,-137.68 22.19,-175.22 18.1,-37.72 46.25,-55.63 80.97,-56.29 34.72,-0.67 63.79,16.14 85.27,52.91 21.48,36.81 35.85,93.5 40.08,173.25 4.23,79.32 -3.91,137.43 -21.74,175.75 -17.8,38.26 -45.57,56.91 -80.28,57.96zm805.37 147.29c71.47,1.82 142.95,4.16 214.43,6.76 -0.77,-40.46 -1.77,-81.02 -3.22,-121.56 31.82,1.12 63.42,2.24 95.23,3.45 -2.39,-57.82 -5.21,-115.73 -8.27,-173.63 -31.82,-0.76 -63.41,-1.54 -95,-2.39 -4.23,-78.61 -8.7,-157.32 -12.69,-235.93 -4,-78.7 -6.45,-157.42 -8.21,-236.23 -104.64,0.07 -209.04,-0.02 -313.44,-0.31 -64.73,100.15 -114.85,181.57 -155.76,254.5 -40.71,72.59 -74.03,136.9 -104.57,202.61 3.06,59.67 5.67,119.24 8.3,178.83 126.58,0.16 253.17,1.3 379.99,3.4 1.44,40.19 2.44,80.39 3.21,120.5zm-205.06 -291.22c27.85,-60.21 55,-112.35 83.61,-163.09 28.71,-50.91 59.57,-100.63 95.95,-156.15 1.34,0.07 2.69,0.15 4.26,0.14 2.6,54.64 5.19,109.28 8.24,163.92 3.05,54.65 6.1,109.2 8.93,163.84 -67.21,-1.07 -133.98,-1.78 -200.76,-2.4 0,-2.12 -0.23,-4.14 -0.23,-6.26z"/>
  <g id="_2420951032016">
   <path class="fil17" d="M8106.98 7861.46c-217.53,119.76 -58.75,440.02 161.39,340.16 198.5,-90.05 86.13,-476.45 -161.39,-340.16z"/>
   <path class="fil1" d="M8151.08 7952.49c-97.33,53.59 -26.29,196.89 72.21,152.21 88.82,-40.29 38.54,-213.19 -72.21,-152.21z"/>
  </g>
  <g id="_2420951030448">
   <path class="fil17" d="M6792.32 8224.36c-217.53,119.77 -58.75,440.03 161.39,340.16 198.5,-90.04 86.13,-476.45 -161.39,-340.16z"/>
   <path class="fil1" d="M6836.42 8315.4c-97.33,53.59 -26.29,196.88 72.21,152.2 88.82,-40.29 38.54,-213.18 -72.21,-152.2z"/>
  </g>
  <g id="_2420951029456">
   <path class="fil17" d="M12722.5 7515.3c-217.52,119.76 -58.74,440.02 161.4,340.16 198.5,-90.05 86.13,-476.45 -161.4,-340.16z"/>
   <path class="fil1" d="M12766.6 7606.34c-97.33,53.58 -26.28,196.88 72.22,152.2 88.82,-40.29 38.54,-213.19 -72.22,-152.2z"/>
  </g>
  <g id="_2420951028688">
   <path class="fil17" d="M13921.07 7617.68c-217.52,119.77 -58.74,440.03 161.39,340.16 198.51,-90.04 86.13,-476.45 -161.39,-340.16z"/>
   <path class="fil1" d="M13965.17 7708.72c-97.33,53.59 -26.28,196.88 72.21,152.2 88.82,-40.29 38.54,-213.18 -72.21,-152.2z"/>
  </g>
  <path class="fil3" d="M9358.2 7058.36l176.77 122.09 122.08 -176.77c49.25,-71.3 147.87,-89.35 219.17,-40.1l0.01 0c71.3,49.25 89.35,147.87 40.1,219.17l-122.08 176.77 176.78 122.09c71.3,49.25 89.34,147.87 40.1,219.17l-0.01 0.01c-49.24,71.3 -147.86,89.35 -219.17,40.1l-176.77 -122.09 -122.1 176.78c-49.24,71.3 -147.86,89.35 -219.16,40.1l-0.01 -0.01c-71.31,-49.24 -89.35,-147.86 -40.1,-219.16l122.09 -176.78 -176.77 -122.09c-71.3,-49.24 -89.35,-147.86 -40.1,-219.17l0 0c49.25,-71.31 147.87,-89.35 219.17,-40.11z"/>
  <path class="fil3" d="M11502.5 6896.67l125.63 153.6 153.59 -125.63c61.96,-50.67 154.1,-41.44 204.78,20.52l0 0.01c50.67,61.95 41.44,154.09 -20.51,204.77l-153.6 125.62 125.63 153.61c50.67,61.96 41.44,154.1 -20.51,204.77l-0.01 0.01c-61.96,50.67 -154.1,41.44 -204.77,-20.52l-125.64 -153.6 -153.6 125.63c-61.96,50.67 -154.1,41.44 -204.77,-20.52l-0.01 -0.01c-50.67,-61.95 -41.44,-154.09 20.51,-204.77l153.61 -125.63 -125.62 -153.6c-50.68,-61.95 -41.45,-154.1 20.51,-204.77l0.01 -0.01c61.95,-50.67 154.1,-41.44 204.77,20.52z"/>
  <path class="fil3" d="M11142.97 6281.18c286.17,435.35 759.32,441.45 1132.16,240.26 62.5,-43.97 66.94,-134.28 9.92,-201.7 -57.02,-67.42 -153.91,-86.44 -216.4,-42.46 -195.09,105.26 -502.26,140.97 -660.6,-99.73 -42.41,-75.25 -136.13,-113.04 -209.33,-84.42 -73.2,28.62 -98.17,112.81 -55.75,188.05z"/>
  <path class="fil3" d="M9837.22 5844.09c-87.86,513.52 -518.96,708.61 -941.17,673.59 -74.88,-15.27 -115.12,-96.24 -89.87,-180.85 25.24,-84.62 106.4,-140.84 181.28,-125.58 220.92,18.32 516.67,-71.99 565.36,-355.95 8.73,-85.94 79.46,-158.1 158,-161.19 78.54,-3.09 135.13,64.05 126.4,149.98z"/>
  <path class="fil15" d="M14972.33 3902.33c-840.72,-101.94 -1628.35,157.86 -2010.83,1128.89 109.02,-609.77 873.37,-1529.93 1728.61,-1393.48 94.07,88.2 188.15,176.39 282.22,264.59z"/>
  <polygon class="fil15" points="15130.56,3259.76 15137.23,3641.26 15499.47,3779.83 15138.71,3904.07 15118.85,4291.4 14889.22,3986.68 14514.71,4087.5 14733.55,3774.93 14521.95,3449.91 14886.84,3561.45 "/>
  <polygon class="fil15" points="15800.65,4647.56 15804.13,4846.34 15992.88,4918.55 15804.9,4983.28 15794.55,5185.1 15674.9,5026.33 15479.77,5078.86 15593.79,4915.99 15483.53,4746.64 15673.66,4804.76 "/>
  <polygon class="fil15" points="6981.69,4677.85 6985.17,4876.63 7173.92,4948.84 6985.94,5013.57 6975.59,5215.39 6855.94,5056.62 6660.81,5109.15 6774.83,4946.28 6664.57,4776.93 6854.7,4835.05 "/>
  <polygon class="fil2" points="9978,3958.04 9664.05,4044.69 9556.08,4850.18 10482.13,4784.03 10460.08,5414.63 10971.6,4448.9 10054.36,4409.47 "/>
  <polygon class="fil18" points="10151.37,3862.66 9869.17,3857.99 9763.34,4695.84 10632.06,4616.46 10460.08,5414.63 10971.6,4448.9 10054.36,4409.47 "/>
  <path class="fil2" d="M6732.93 12426.94c6.79,89.51 405.09,762.01 490.57,908.29 112.5,192.56 159.88,255.14 270.56,423.95 246.25,375.56 562.01,759.35 897.83,1088.9 -523.14,-840.23 -988.84,-1695.37 -1338.23,-2580.68 -142.54,68.44 -258.5,126.2 -320.73,159.54z"/>
  <path class="fil2" d="M6322.66 11475.11c38.89,104.03 299.63,781.64 364.13,862.49l291.52 -155.17c10.95,-5.81 22.69,-11.98 35.14,-18.44 -498.73,-1301.32 -742.36,-2668.83 -544.59,-4150.88 -105.07,43.85 -210.74,91.01 -317.83,141.66 -34.57,16.36 -234.34,112.03 -255.28,149.31 -27.88,71.66 -39.91,507.64 -38.14,611.29 15.73,928.3 137.55,1683.6 465.05,2559.74z"/>
  <path class="fil2" d="M7587 6531.78c-350.54,112.29 -665.31,248.42 -993.22,399.25 -103.42,47.57 -212.06,104.94 -307.14,160.13 -119.75,69.5 -183.23,92.08 -225.95,247.38 -34.24,124.47 -65.98,270.09 -86.95,400.63 -19.6,121.96 -62.7,306.08 -67.21,421.08 37.35,-16.39 83.29,-49.7 127.13,-74.76 132.98,-76.01 293.66,-156.39 457.68,-228.65 22.88,-148.96 49.97,-299.02 81.99,-450.36 403.28,-209.39 1111.46,-543.77 1460.89,-609.99 -55.42,-195.98 -65.98,-330.37 -78.74,-367.55 -49.81,0.4 -303.86,82.14 -368.48,102.84z"/>
  <path class="fil2" d="M12669.86 6219.83c-0.66,62.02 -1.64,120.94 -3.4,180.95 700.04,16.67 1224.4,48.12 1205.01,125.33 81.12,176.76 146.92,368.82 198.92,574.67 21.02,1.99 41.39,4.03 61.02,6.11 112.98,11.95 410.75,73.28 504.2,63.33 -74.65,-421.26 -272.13,-820.64 -516.98,-1052.16 -73.32,-69.33 -172.68,-65.16 -321.91,-85.05 -290.24,-38.71 -890.69,-115.26 -1141.62,-103.21 -4.81,85 15.75,196.96 14.76,290.03z"/>
  <path class="fil2" d="M14112.28 7284.13c228.73,1113.21 87.88,2595.91 -261.54,4287.09 79,19.01 230.86,69.33 284.36,67.14 52.68,-75.75 120.87,-372.32 149.58,-483.77 130.09,-505.02 258.71,-1020.04 339.82,-1541.37 61.76,-396.97 90.41,-748.11 112.82,-1156.01 16.5,-300.39 -10.58,-827.61 -69.89,-1100.02 -96.59,-20.53 -327.71,-49.35 -555.15,-73.06z"/>
  <path class="fil2" d="M13820.02 11718.09c-141.35,666.26 -313.87,1363.67 -507.91,2082.62 223.83,-411.32 408.78,-846.41 559.55,-1289.4 32.9,-96.68 230.37,-666.67 226.99,-723.15 -65.92,-16.67 -168.39,-43.27 -278.63,-70.07z"/>
 </g>
</svg>
